<?xml version="1.0" encoding="UTF-8"?>
<svg xmlns="http://www.w3.org/2000/svg" width="236" height="141" viewBox="0 0 236 141" fill="none">
  <path d="M66.3076 27.6055C66.3076 27.6055 65.3658 38.9526 74.1562 36.5703C65.3658 38.9526 66.3076 49.7981 66.3076 49.7981C66.3076 49.7981 67.2494 38.451 58.459 40.8333C67.2494 38.451 66.3076 27.6055 66.3076 27.6055Z" fill="url(#paint0_linear)"></path>
  <path d="M39.7842 117.459C39.7842 117.459 38.8423 129.083 47.6328 126.642C38.8423 129.083 39.7842 140.193 39.7842 140.193C39.7842 140.193 40.726 128.569 31.9355 131.009C40.726 128.569 39.7842 117.459 39.7842 117.459Z" fill="url(#paint1_linear)"></path>
  <path d="M40.4712 110.081C39.2734 110.259 37.9424 110.392 36.4783 110.437C35.2361 110.57 33.5058 109.992 31.2432 108.702C30.1341 107.901 29.2024 106.833 28.4482 105.454C27.9601 104.876 27.5608 103.808 27.2503 102.296C27.2059 102.207 27.1616 102.074 27.1616 101.985L26.9841 101.006C26.851 98.826 27.4721 97.4025 28.8031 96.7797C29.2467 96.4238 30.7552 95.5786 33.3284 94.244L35.9016 93.6212C36.5671 93.3098 37.2769 93.7102 38.1199 94.7333L38.5192 96.2459C38.741 96.8242 39.0515 97.4915 39.5396 98.2922C40.5156 98.7816 41.2255 99.0485 41.7578 99.093L43.1775 98.6481C43.9318 98.2922 44.5085 97.7584 44.8634 97.0466L44.9522 96.7797L44.686 95.2672C43.4881 93.3098 42.379 92.3311 41.3586 92.2421C39.6727 91.3524 37.8537 90.6851 35.946 90.2848C35.7241 90.3737 35.0586 90.1068 33.9051 89.4395C33.5502 89.6175 32.1305 89.0392 29.6017 87.7046C28.7587 87.2152 24.4553 85.8362 23.6567 84.724C22.8581 83.6564 25.6088 82.9001 24.8989 81.2541L24.8102 80.7203C24.1891 77.0725 24.1003 74.8037 24.4553 73.914C24.5884 70.9334 24.9433 68.976 25.4757 68.0863C27.8714 63.4598 30.7995 59.9009 34.3044 57.4097C36.5227 55.9417 38.0755 55.0075 38.9184 54.6071L39.8058 54.2067C43.0001 52.7387 46.6381 52.1159 50.7641 52.3383C52.095 52.7832 53.2929 53.317 54.2689 53.9843C56.576 56.5645 57.8626 58.4329 58.04 59.634L58.4837 62.3476C58.883 64.7499 57.0196 67.1521 52.8493 69.5099C49.9655 70.8444 48.2352 70.8 47.5697 69.3764C47.1705 69.1095 46.505 67.7749 45.5733 65.4617C44.7303 64.5275 44.0205 64.1716 43.5325 64.394L43.2663 64.483C41.8909 65.1058 41.048 66.3959 40.8262 68.3088L41.0036 69.4654C42.024 70.8444 43.1775 71.7342 44.4198 72.1345C45.1296 72.179 45.7951 72.3125 46.3719 72.6239C46.8155 72.8018 47.3479 72.9353 48.0578 73.1132C48.324 73.2912 48.6345 73.4246 49.0782 73.6471C49.3887 73.7805 49.7437 73.9585 50.2317 74.0919C50.4979 74.2254 49.3 73.1577 49.7437 73.3357C50.4091 73.6026 53.426 74.7592 54.2689 74.9816C57.2858 76.1383 58.2175 77.5173 58.6611 78.407C59.1935 79.1188 59.5041 79.6082 59.5485 79.7861C60.6132 80.8538 61.3231 82.1883 61.678 83.8343C61.9442 84.0567 62.166 84.6351 62.3879 85.5693L62.6984 87.3932C62.7428 87.7935 62.7872 88.1939 62.8315 88.6833C62.9202 89.573 62.7428 91.219 62.2548 93.6657C61.9442 94.6444 61.2344 96.0679 60.1252 97.9808C57.7295 100.828 55.7774 102.83 54.2689 103.986C52.45 105.499 50.3204 106.878 47.7916 108.035C44.8634 109.013 42.5121 109.681 40.7374 110.125L40.4712 110.081Z" fill="#2F3843"></path>
  <path d="M29.8234 90.1514C29.8234 90.1514 37.2325 92.1087 38.1642 94.9558C38.1642 94.9558 34.5705 97.8474 31.7755 96.4239C28.9805 95.0448 29.8234 90.1514 29.8234 90.1514Z" fill="url(#paint2_linear)"></path>
  <path d="M45.8398 49.6694C51.7405 51.3599 53.2933 53.3173 54.2693 53.9846C56.5763 56.5647 57.8629 58.4331 58.0404 59.6343L48.3243 54.7853L45.8398 49.6694Z" fill="url(#paint3_linear)"></path>
  <path d="M50.0983 58.166L58.4834 62.3922C58.8827 64.7944 57.0194 67.1966 52.849 69.5544C49.9652 70.889 47.7469 71.3338 45.2181 68.9761L40.6484 66.3959L50.0983 58.166Z" fill="url(#paint4_linear)"></path>
  <path d="M49.7881 73.4248C50.4536 73.6917 53.4704 74.8484 54.3134 75.0708C57.3302 76.2274 58.2619 77.6065 58.7056 78.4962C59.238 79.208 59.5485 79.6973 59.5929 79.8753C60.6577 80.9429 61.3675 82.2775 61.7224 83.9235C61.9886 84.1459 62.2105 84.7242 62.4323 85.6584L62.7428 87.4823C62.7872 87.8827 62.8316 88.2831 62.8759 88.7724C62.9647 89.6621 62.7872 91.3081 62.2992 93.7548L53.1155 87.3489L49.7881 73.4248Z" fill="url(#paint5_linear)"></path>
  <path d="M46.4617 98.2476L54.3144 103.986C52.4954 105.499 50.3658 106.878 47.837 108.034C44.9089 109.013 42.5575 109.68 40.7829 110.125L40.5167 110.036C39.3188 110.214 37.9878 110.348 36.5238 110.392C35.2815 110.526 29.9577 110.036 24.6338 105.365L46.4617 98.2476Z" fill="url(#paint6_linear)"></path>
  <path d="M33.0174 106.344C31.8195 106.566 30.4886 106.655 29.0245 106.7C27.7823 106.833 26.052 106.255 23.7894 104.965C22.6802 104.164 21.7485 103.096 20.9943 101.717C20.5063 101.139 20.107 100.071 19.7964 98.5588C19.7521 98.4698 19.7077 98.3364 19.7077 98.2474L19.5303 97.2687C19.3972 95.0889 20.0183 93.6653 21.3492 93.0425C21.7929 92.6422 23.3013 91.8414 25.8745 90.5068L28.4477 89.884C29.1132 89.5726 29.8231 89.973 30.666 90.9962L31.0653 92.5087C31.2871 93.087 31.5977 93.7543 32.0857 94.5551C33.0618 95.0444 33.7716 95.3113 34.304 95.3558L35.7237 94.9109C36.4779 94.5551 37.0547 94.0212 37.4096 93.3094L37.4983 93.0425L37.2321 91.53C36.0343 89.5726 34.9251 88.5939 33.9047 88.505C32.2188 87.6153 30.3998 86.948 28.4921 86.5476C28.2703 86.6366 27.6048 86.3697 26.4513 85.7024C26.0964 85.8803 24.6767 85.302 22.1478 83.9674C20.4176 82.9887 18.8648 80.8534 17.4451 77.517L17.3563 76.9831C16.7352 73.3798 16.6021 71.111 17.0014 70.1768C17.1345 67.1963 17.4894 65.2834 18.0218 64.3492C20.4176 59.7226 23.3457 56.1638 26.8506 53.6726C29.1132 52.2045 30.666 51.2703 31.4646 50.8699L32.3519 50.4696C35.5462 49.0015 39.1842 48.3787 43.3102 48.6457C44.6412 49.0905 45.8391 49.6243 46.8151 50.2916C49.1221 52.8718 50.4087 54.7402 50.5862 55.9413L51.0298 58.655C51.4291 61.0572 49.5658 63.4594 45.3954 65.8172C42.5116 67.1518 40.7814 67.1073 40.1159 65.6837C39.7166 65.4168 39.0511 64.0822 38.1194 61.769C37.2765 60.8348 36.5666 60.4789 36.0786 60.7013L35.8568 60.8348C34.4815 61.4576 33.6385 62.7477 33.4167 64.6606L33.5942 65.8172C34.6146 67.1963 35.7681 68.086 37.0103 68.4863C37.7201 68.5308 38.3856 68.7088 38.9624 68.9757C39.406 69.1536 39.9384 69.2871 40.6483 69.465C40.9145 69.643 41.225 69.8209 41.6687 69.9989C41.9792 70.1323 42.3342 70.3103 42.8222 70.4437C43.0884 70.5772 43.399 70.7551 43.8426 70.9776C44.5081 71.2445 45.2179 71.5114 46.0609 71.7338C49.0777 72.8904 50.808 73.9136 51.2073 74.8033C51.7397 75.5151 52.0502 76.0045 52.0946 76.1824C53.1594 77.2501 53.8692 78.5846 54.2242 80.2306C54.4904 80.453 54.7122 81.0314 54.934 81.9211L55.2446 83.745C55.2889 84.1454 55.3333 84.5457 55.3777 85.0351C55.4664 85.9248 55.2889 87.5708 54.8009 89.973C54.4904 90.9517 53.7805 92.3752 52.6714 94.2881C50.2756 97.1352 48.3235 99.1371 46.8151 100.294C44.9961 101.851 42.8666 103.185 40.3377 104.342C37.454 105.276 35.0582 105.988 33.2836 106.433L33.0174 106.344Z" fill="white"></path>
  <path d="M30.6216 52.5165L31.5089 52.1162C34.7032 50.6481 38.3412 50.0253 42.4672 50.2477C43.7982 50.6926 44.9961 51.2264 45.9721 51.8937C48.2791 54.4739 49.5657 56.3423 49.7432 57.5434L50.1868 60.2571C50.2756 60.8799 50.2312 61.5027 50.0537 62.1255C50.9411 60.9688 51.296 59.8122 51.0742 58.6111L50.6305 55.8974C50.4087 54.6963 49.1664 52.8279 46.8594 50.2477C45.8834 49.5805 44.7299 49.0466 43.3545 48.6018C39.2285 48.3793 35.5462 48.9577 32.3962 50.4257L31.5089 50.8261C30.666 51.2264 29.1132 52.1606 26.8949 53.6287C23.39 56.1199 20.4619 59.6787 18.0661 64.3053C18.0218 64.3942 17.9774 64.5722 17.8887 64.6612C20.1513 60.6574 22.8133 57.4989 25.9632 55.2302C28.2259 53.8066 29.7787 52.8724 30.6216 52.5165Z" fill="url(#paint7_linear)"></path>
  <path d="M25.0764 92.1534L27.6496 91.5306C28.3151 91.2191 29.0249 91.6195 29.8679 92.6427L30.2672 94.1552C30.489 94.7335 30.7995 95.4008 31.2876 96.2016C32.2636 96.6909 32.9735 96.9578 33.5058 97.0023L34.9255 96.5575C35.6798 96.2016 36.2565 95.6677 36.6114 94.956L36.7002 94.6891L36.6558 94.4221C36.3896 94.6446 36.1234 94.8225 35.8129 95.0004L34.3932 95.4453C33.8608 95.4008 33.1509 95.1339 32.1749 94.6446C31.6869 93.8438 31.3763 93.1765 31.1545 92.5982L30.7552 91.0857C29.9122 90.0625 29.2024 89.7066 28.5369 89.9735L25.9637 90.5963C23.3905 91.8864 21.8821 92.7317 21.4384 93.132C20.5955 93.5324 20.0631 94.2887 19.7969 95.2674C20.0187 95.0449 20.2849 94.867 20.5511 94.7335C20.9504 94.2887 22.4588 93.4434 25.0764 92.1534Z" fill="url(#paint8_linear)"></path>
  <path d="M52.1844 76.1379C52.14 75.9155 51.8295 75.4707 51.2971 74.7589C50.8978 73.8692 49.1675 72.846 46.1507 71.6894C45.3077 71.4669 44.5979 71.2 43.9324 70.9331C43.4887 70.7107 43.1338 70.5772 42.912 70.3993C42.4239 70.2213 42.069 70.0879 41.7585 69.9544C41.3148 69.7765 41.0042 69.5985 40.738 69.4206C40.0282 69.2426 39.4514 69.0647 39.0522 68.9312C38.431 68.6198 37.7656 68.4419 37.1001 68.4419C35.8578 68.0415 34.7043 67.1518 33.6839 65.7727L33.5065 64.6161C33.5508 64.1712 33.6395 63.8154 33.7726 63.4595C33.1959 64.1712 32.7966 65.061 32.6191 66.2176L32.7966 67.3742C33.817 68.7533 34.9705 69.643 36.2128 70.0434C36.9226 70.0879 37.5881 70.2658 38.1648 70.5327C38.6085 70.7107 39.1409 70.8441 39.8507 71.0221C40.1169 71.2 40.4275 71.378 40.8711 71.5114C41.1817 71.6449 41.5366 71.8228 42.0247 71.9563C42.2908 72.0897 42.6014 72.2677 43.0451 72.4901C43.7105 72.757 44.4204 73.0239 45.2633 73.2464C48.2802 74.403 50.0105 75.4262 50.4098 76.3159C50.9421 77.0277 51.2527 77.517 51.2971 77.6949C52.3618 78.7181 53.0717 80.0972 53.4266 81.7432C53.6928 81.9656 53.9146 82.5439 54.1365 83.4781L54.447 85.302C54.4914 85.7024 54.5358 86.1028 54.5801 86.5921C54.6688 87.4818 54.4914 89.1278 54.0034 91.53C53.8259 92.0639 53.5597 92.7312 53.1604 93.4874C54.0477 91.9749 54.6245 90.7293 54.8907 89.8841C55.3787 87.4818 55.5562 85.8358 55.4674 84.9461C55.4674 84.4568 55.4231 84.0564 55.3343 83.656L55.0238 81.8321C54.8019 80.9424 54.5801 80.3641 54.3139 80.1417C53.9146 78.5402 53.2048 77.2056 52.1844 76.1379Z" fill="url(#paint9_linear)"></path>
  <path d="M165.309 111.086C165.149 110.763 164.955 109.924 164.73 108.537C164.666 108.569 163.636 108.956 161.641 109.763L160.515 110.053C160.161 111.763 159.71 113.409 159.099 115.022C158.681 115.474 158.295 115.764 157.908 115.861L157.715 115.925C155.785 116.28 154.465 116.409 153.757 116.313C153.661 116.28 153.596 116.248 153.5 116.216C152.599 116.248 152.148 115.893 152.148 115.183C152.277 114.473 152.342 113.699 152.406 112.86C152.599 112.376 152.824 111.408 153.146 109.989C153.243 109.827 153.468 108.956 153.757 107.407C153.854 106.891 153.95 106.472 154.079 106.149C154.24 104.955 154.465 103.858 154.691 102.89C154.884 101.115 155.012 99.8249 155.012 98.9859C155.077 98.9537 155.141 98.3406 155.27 97.0823L155.688 94.5333C155.688 94.501 155.656 94.4688 155.624 94.501C155.624 93.5976 156.139 92.7909 157.168 92.1134C157.49 91.952 157.876 91.823 158.359 91.6939L164.312 90.0806C167.111 89.3062 165.856 86.9831 166.017 87.2735C166.275 87.3703 169.267 89.6289 169.46 89.7902C169.911 90.2419 170.136 90.9841 170.136 92.0166C170.136 92.1779 170.49 94.017 171.198 97.5663C171.198 98.4697 171.359 99.9539 171.681 102.051V102.922C171.97 104.6 172.196 105.439 172.421 105.375C172.678 105.794 172.936 106.762 173.161 108.343V108.408C173.225 108.569 173.29 108.73 173.354 108.924V109.408C173.354 110.15 173.129 110.666 172.678 111.021C171.391 111.957 170.587 112.441 170.329 112.538C169.975 112.763 169.525 112.957 168.978 113.151C168.527 113.473 168.045 113.731 167.498 113.86C166.725 114.054 166.21 113.828 165.953 113.086C165.567 112.021 165.374 111.344 165.309 111.086ZM161.512 104.503L161.158 105.633L164.248 104.052C163.958 102.793 163.829 101.632 163.829 100.535V100.083C163.636 98.4374 163.443 97.2759 163.218 96.566L162.574 96.7274C162.446 97.2759 162.317 98.3406 162.188 99.9539C162.124 99.9862 162.059 100.18 162.059 100.567V101.374C162.059 101.503 161.931 102.309 161.641 103.858C161.641 104.116 161.609 104.342 161.512 104.503Z" fill="#2F3843"></path>
  <path d="M155.463 112.376L159.099 115.054C158.681 115.506 158.295 115.796 157.909 115.893L157.716 115.957C155.785 116.312 154.466 116.441 153.758 116.345C153.661 116.312 153.597 116.28 153.5 116.248C152.921 116.248 152.535 116.119 152.342 115.861C152.213 115.699 149.124 113.699 149.124 113.441L155.463 112.376Z" fill="url(#paint10_linear)"></path>
  <path d="M164.73 108.536C164.666 108.569 163.636 108.956 161.641 109.763L160.515 110.053L157.394 107.762L161.899 105.858L164.73 108.536Z" fill="url(#paint11_linear)"></path>
  <path d="M169.492 106.73L173.354 109.408C173.354 110.15 173.129 110.666 172.678 111.021C171.391 111.957 170.586 112.441 170.329 112.538C169.975 112.764 169.525 112.957 168.978 113.151C168.527 113.474 168.044 113.732 167.497 113.861C167.015 113.99 166.661 113.957 166.371 113.732C166.178 113.603 163.185 111.57 163.089 111.279L169.492 106.73Z" fill="url(#paint12_linear)"></path>
  <path d="M166.017 87.2734C166.274 87.3702 169.267 89.6288 169.46 89.7902C169.91 90.2419 170.135 90.984 170.135 92.0165C170.135 92.1778 170.489 94.017 171.197 97.5662L166.628 97.1145L166.017 87.2734Z" fill="url(#paint13_linear)"></path>
  <path d="M162.188 108.796C162.027 108.473 161.834 107.634 161.609 106.247C161.545 106.279 160.515 106.666 158.52 107.473L157.394 107.763C157.04 109.473 156.589 111.119 155.978 112.732C155.56 113.184 155.173 113.474 154.787 113.571L154.594 113.635C152.664 113.99 151.344 114.119 150.636 114.023C150.54 113.99 150.475 113.99 150.379 113.926C149.478 113.958 149.027 113.603 149.027 112.893C149.156 112.184 149.22 111.409 149.285 110.57C149.478 110.086 149.703 109.118 150.025 107.699C150.121 107.537 150.347 106.666 150.636 105.117C150.733 104.601 150.829 104.182 150.958 103.859C151.119 102.665 151.344 101.568 151.569 100.6C151.763 98.8255 151.891 97.5026 151.891 96.696C151.956 96.6637 152.02 96.0507 152.149 94.7923L152.567 92.2433C152.567 92.211 152.535 92.1788 152.503 92.211C152.503 91.3076 153.017 90.501 154.047 89.8234C154.369 89.662 154.755 89.533 155.238 89.4039L161.191 87.7906C163.99 87.0163 165.503 86.7904 165.631 87.1131C166.532 87.4034 166.983 88.2746 166.983 89.7588C166.983 89.9202 167.337 91.7593 168.045 95.3085C168.045 96.212 168.206 97.6962 168.528 99.7935V100.665C168.817 102.342 169.042 103.181 169.268 103.117C169.525 103.536 169.782 104.504 170.008 106.085V106.15C170.072 106.279 170.136 106.472 170.201 106.666V107.15C170.201 107.892 169.976 108.408 169.525 108.763C168.238 109.699 167.433 110.183 167.176 110.28C166.822 110.506 166.372 110.699 165.825 110.893C165.374 111.216 164.891 111.441 164.344 111.603C163.572 111.829 163.057 111.57 162.8 110.828C162.446 109.731 162.253 109.054 162.188 108.796ZM158.359 102.213L158.005 103.343L161.094 101.762C160.805 100.503 160.772 99.4385 160.515 98.1157L159.421 94.4051C159.292 94.9536 159.164 96.0184 159.035 97.6317C158.97 97.6639 158.906 97.8575 158.906 98.2447V99.0514C158.906 99.1804 158.777 99.9871 158.488 101.536C158.52 101.826 158.456 102.052 158.359 102.213Z" fill="#FF4E52"></path>
  <path d="M161.094 101.793L158.005 103.374L158.359 102.244C158.456 102.051 158.488 101.825 158.488 101.567C158.777 100.018 158.906 99.2114 158.906 99.0823V98.2757C158.906 97.8885 158.97 97.6949 159.035 97.6626C159.131 96.501 159.324 95.0491 159.421 94.436L158.874 95.1136C158.745 95.6621 158.616 96.7269 158.488 98.3402C158.423 98.3725 158.359 98.566 158.359 98.9532V99.7599C158.359 99.8889 158.23 100.696 157.941 102.244C157.941 102.502 157.909 102.728 157.812 102.922L157.458 104.051L160.547 102.47L161.094 101.793Z" fill="url(#paint14_linear)"></path>
  <path d="M155.527 113.183C155.688 113.054 155.817 112.925 155.978 112.764C156.525 111.344 157.072 109.311 157.394 107.795L156.847 108.472C156.557 110.086 156.074 111.635 155.527 113.183Z" fill="url(#paint15_linear)"></path>
  <path d="M154.69 90.0807L160.643 88.4675C163.442 87.6931 164.955 87.4672 165.083 87.7576C165.984 88.048 166.435 88.9192 166.435 90.4034C166.435 90.5647 166.789 92.4039 167.497 95.9531C167.497 96.8565 167.658 98.3408 167.979 100.438V101.309C168.269 102.987 168.494 103.826 168.719 103.761C168.977 104.181 169.234 105.149 169.46 106.73V106.794C169.524 106.956 169.588 107.117 169.653 107.311V107.795C169.653 108.15 169.588 108.472 169.492 108.73C169.492 108.73 169.492 108.73 169.524 108.73C169.974 108.375 170.2 107.859 170.2 107.117V106.633C170.135 106.439 170.071 106.278 170.007 106.117V106.052C169.781 104.471 169.524 103.503 169.266 103.084C169.041 103.148 168.816 102.342 168.526 100.632V99.7604C168.205 97.6632 168.044 96.1467 168.044 95.2755C167.336 91.7586 166.982 89.8871 166.982 89.7258C166.982 88.2739 166.531 87.3704 165.63 87.08C165.469 86.7896 163.989 87.0155 161.19 87.7576L155.237 89.3709C154.786 89.5 154.4 89.629 154.046 89.7903C153.499 90.1453 153.081 90.5647 152.823 90.9842C153.016 90.7906 153.242 90.6293 153.499 90.4679C153.853 90.3389 154.239 90.2098 154.69 90.0807Z" fill="url(#paint16_linear)"></path>
  <path d="M87.188 88.5943L87.3654 88.5499C88.4746 88.2385 89.1401 88.9502 89.3175 90.6407V91.219C89.3175 94.2885 89.0513 96.1124 88.4746 96.6908C87.8978 97.2246 87.2323 97.5805 86.5225 97.8029L84.5704 98.3367L84.2155 98.3812C81.1543 99.3599 78.448 100.205 76.0522 100.828C75.5198 101.184 74.2776 101.584 72.4142 102.074L70.7727 102.518C68.022 103.275 66.4692 103.275 66.1143 102.518C65.7594 102.607 65.4045 101.807 65.0939 100.161C65.1826 98.5147 65.2714 97.2246 65.4045 96.2904C65.4045 94.9113 65.3601 92.4646 65.3157 88.8613C65.4045 83.9678 65.4045 80.8093 65.4045 79.3858C65.0495 76.5387 64.8721 74.8482 64.8721 74.4034C64.8721 73.5136 64.9608 72.357 65.0939 70.8445L65.0052 69.5099C65.0052 66.6628 65.227 64.9724 65.6263 64.4385C66.0699 64.0826 67.046 63.5488 68.5101 62.8815C69.3086 62.7481 69.9298 62.6146 70.2847 62.5256L72.991 61.8139C76.8064 60.7907 78.7141 60.4348 78.7141 60.7462C79.2465 61.28 79.5571 61.9028 79.5571 62.6591V67.8639C79.5571 70.711 79.6015 74.2699 79.6458 78.496C79.5127 79.6527 79.424 81.1207 79.424 82.9001V84.2347C79.2909 85.2134 79.2022 85.7472 79.2022 85.8362V91.3525C82.2634 90.3738 84.881 89.4841 87.0549 88.6833C87.0992 88.5943 87.1436 88.5943 87.188 88.5943Z" fill="#2F3843"></path>
  <path d="M73.2122 56.7871C74.8981 57.3654 77.072 58.8335 78.6248 60.7463C79.1128 61.3247 79.4678 61.903 79.4678 62.6592V70.7557L72.7686 67.0189L73.2122 56.7871Z" fill="url(#paint17_linear)"></path>
  <path d="M82.3965 92.5092L82.8845 84.6353C85.5464 85.4805 90.0274 87.8382 89.3619 90.5964V91.1747C89.3619 94.2442 89.0957 96.0681 88.5189 96.6464L82.3965 92.5092Z" fill="url(#paint18_linear)"></path>
  <path d="M70.8618 95.668L76.0082 100.784C75.4758 101.14 74.2335 101.54 72.3702 102.029L70.7287 102.474C67.978 103.231 65.6266 103.453 65.2717 102.697C65.2717 102.697 60.6577 99.8496 60.3027 98.1592L70.8618 95.668Z" fill="url(#paint19_linear)"></path>
  <path d="M81.9526 84.7242L82.1301 84.6797C83.2392 84.3683 83.9047 85.0801 84.0822 86.7705V87.3488C84.0822 90.4184 83.816 92.2423 83.2392 92.8206C82.6625 93.3544 81.997 93.7103 81.2871 93.9327L79.3351 94.4666L78.9801 94.5111C75.9189 95.4897 73.2126 96.335 70.8169 96.9578C70.2845 97.3137 69.0422 97.714 67.1789 98.2034L65.5373 98.6482C62.7867 99.4045 61.2339 99.4045 60.879 98.6482C60.524 98.7372 60.1691 97.9365 59.8585 96.2905C59.9473 94.6445 60.036 93.3544 60.1691 92.4202C60.1691 91.0412 60.1247 88.5944 60.0804 85.0356C60.1691 80.1421 60.1691 76.9836 60.1691 75.5601C59.8142 72.713 59.6367 71.0225 59.6367 70.5777C59.6367 69.688 59.7254 68.5313 59.8585 67.0188L59.7698 65.6842C59.7698 62.8371 59.9916 61.1467 60.3909 60.6128C60.8346 60.257 61.8106 59.7231 63.2747 59.0558C64.0733 58.9224 64.6944 58.7889 65.0493 58.6999L67.7556 57.9882C71.5711 56.965 73.4788 56.6091 73.4788 56.9205C74.0112 57.4543 74.3217 58.0771 74.3217 58.8334V64.0382C74.3217 66.8853 74.3661 70.4442 74.4105 74.6704C74.2774 75.827 74.1886 77.295 74.1886 79.0745V80.409C74.0555 81.3877 73.9668 81.9216 73.9668 82.0105V87.5268C77.028 86.5481 79.6456 85.6584 81.8195 84.8576C81.8195 84.7687 81.9083 84.7242 81.9526 84.7242Z" fill="white"></path>
  <path d="M82.0853 84.6797L81.9078 84.7242C81.8635 84.7242 81.7747 84.7687 81.7304 84.8132C79.5564 85.6139 76.8945 86.5037 73.8776 87.4823V81.9661C73.8776 81.8771 73.9664 81.3433 74.0995 80.3646V79.03C74.0995 77.2506 74.1882 75.7826 74.3213 74.6259C74.2326 70.3998 74.2326 66.8854 74.2326 63.9938V58.789C74.2326 58.0327 73.9664 57.4099 73.3896 56.8761C73.3896 56.5647 71.4819 56.9206 67.6665 57.9437L64.9602 58.6555C64.6052 58.7445 64.0285 58.8779 63.1855 59.0114C61.6771 59.6787 60.7011 60.2125 60.3018 60.5684C60.1687 60.7463 60.0799 60.9688 59.9912 61.3247C60.5236 61.0133 61.2778 60.6129 62.2982 60.168C63.0968 60.0346 63.7179 59.9011 64.0728 59.8121L66.7791 59.1004C70.5946 58.0772 72.5023 57.7213 72.5023 58.0327C73.0347 58.5665 73.3453 59.1893 73.3453 59.9456V65.1949C73.3453 68.042 73.3896 71.6009 73.434 75.827C73.3009 76.9837 73.2122 78.4517 73.2122 80.2311V81.5657C73.0791 82.5444 72.9903 83.0782 72.9903 83.1672V88.6835C76.0516 87.7048 78.6691 86.8151 80.843 86.0143C80.9318 85.9698 80.9761 85.9698 81.0205 85.9253L81.1536 85.8808C82.2628 85.5694 82.9282 86.2812 83.1057 87.9717V88.55C83.1057 90.7743 82.9726 92.3313 82.662 93.221C82.8395 93.0876 83.017 92.9986 83.1501 92.8651C83.6824 92.3313 83.993 90.5074 83.993 87.3934V86.8151C83.9043 85.0801 83.2388 84.3683 82.0853 84.6797Z" fill="url(#paint20_linear)"></path>
  <path d="M130.845 128.809L129.203 129.032C126.719 129.343 125.21 128.987 124.678 127.964C123.968 126.985 123.036 125.117 121.794 122.359C120.818 120.802 120.019 119.334 119.443 117.91C118.644 118.756 117.003 121.024 114.518 124.672C114.429 124.672 113.941 125.517 112.965 127.119C111.9 128.987 110.88 130.144 109.86 130.589C109.15 131.212 107.464 131.701 104.758 132.101C104.758 132.19 104.491 132.235 104.048 132.279L102.406 132.502C101.963 132.68 101.652 132.769 101.519 132.769L100.01 132.947C99.1232 133.035 98.2359 132.457 97.3042 131.123C97.1711 130.455 97.1267 129.165 97.2598 127.208C96.9493 125.606 96.9049 124.049 97.1267 122.537C96.8605 122.581 96.7718 121.914 96.9049 120.624L97.1711 118.622C97.2598 115.775 97.3042 114.218 97.3486 113.951L97.7035 111.46C97.6147 108.524 97.6591 106.211 97.9253 104.431C97.8366 104.431 97.8809 102.874 98.1028 99.7156L98.1915 99.2262C98.4133 97.7582 99.0344 96.735 100.099 96.2012C101.075 95.7118 102.184 95.4004 103.427 95.267L108.484 94.6442C109.904 94.4662 110.836 94.5997 111.191 95.0445C111.59 95.4449 111.767 95.8898 111.679 96.3346L111.457 97.9361C111.546 98.6924 111.546 99.4487 111.457 100.116L111.235 101.584C111.368 104.387 111.501 106.122 111.679 106.789L111.501 108.168C111.457 108.435 111.457 109.858 111.501 112.483L112.566 111.148C114.651 108.702 115.982 106.967 116.603 105.944C117.269 105.41 117.801 104.876 118.112 104.298C119.265 103.185 120.241 102.607 121.04 102.518L121.971 102.385C123.214 102.251 124.234 102.963 125.033 104.565C125.521 105.187 126.142 106.255 126.94 107.679L127.473 108.746C127.517 108.568 127.606 108.39 127.695 108.212C127.828 107.189 128.538 104.787 129.824 101.05C130.49 98.9148 131.066 97.4023 131.554 96.6016C132.131 94.2883 132.664 92.9092 133.107 92.4199C133.95 91.5747 134.837 91.1298 135.814 90.9963C138.52 90.8629 141.182 90.6405 143.844 90.3735C145.352 90.5515 146.373 90.9519 146.861 91.6636C147.127 92.064 147.26 92.4644 147.216 92.7758L147.127 93.2651C145.618 97.4468 144.82 99.7156 144.775 100.071L143.4 105.321C143.311 105.944 142.557 108.435 141.137 112.839C141.093 113.061 140.871 113.684 140.472 114.707C139.851 116.398 139.363 117.999 139.008 119.423L138.564 121.024C138.342 122.67 137.233 124.85 135.237 127.564C134.438 128.231 133.773 128.631 133.152 128.72H133.063C132.131 128.809 131.377 128.854 130.845 128.809Z" fill="#2F3843"></path>
  <path d="M106.576 90.5073C109.193 91.664 111.19 95.0004 111.19 95.0004C111.589 95.4008 111.767 95.8456 111.678 96.2905L111.456 97.892C111.545 98.6482 111.545 99.4045 111.456 100.072L106.398 96.7798L106.576 90.5073Z" fill="url(#paint21_linear)"></path>
  <path d="M118.91 98.1592C118.91 98.1592 123.214 99.4938 124.944 103.764L122.593 104.699L118.91 98.1592Z" fill="url(#paint22_linear)"></path>
  <path d="M141.225 86.3696C142.733 86.5476 146.327 90.9072 146.859 91.5745C147.126 91.9748 147.259 92.3752 147.214 92.6866L147.126 93.176C145.617 97.3576 144.819 99.6264 144.774 99.9823L143.399 105.232L137.365 99.3595L141.225 86.3696Z" fill="url(#paint23_linear)"></path>
  <path d="M105.29 125.028L109.859 130.545C109.149 131.167 107.463 131.657 104.757 132.057C104.757 132.146 104.491 132.191 104.047 132.235L102.406 132.457C101.962 132.635 101.652 132.724 101.518 132.724L100.01 132.902C98.1023 133.436 94.42 128.899 93.4883 127.564L105.29 125.028Z" fill="url(#paint24_linear)"></path>
  <path d="M130.355 122.626L135.28 127.519C134.481 128.187 133.816 128.587 133.195 128.676H133.106C132.174 128.81 131.42 128.81 130.843 128.765L129.202 128.987C126.717 129.299 125.209 128.943 124.677 127.92L120.462 123.916L130.355 122.626Z" fill="url(#paint25_linear)"></path>
  <path d="M126.363 124.405L124.722 124.627C122.237 124.939 120.729 124.583 120.196 123.56C119.486 122.581 118.51 120.713 117.313 117.955C116.337 116.398 115.538 114.93 114.961 113.506C114.163 114.351 112.521 116.62 110.037 120.268C109.948 120.268 109.46 121.113 108.484 122.715C107.419 124.583 106.399 125.74 105.378 126.184C104.668 126.807 102.982 127.297 100.276 127.697C100.276 127.786 100.01 127.83 99.5663 127.875L97.9248 128.097C97.4811 128.275 97.1706 128.364 97.0375 128.364L95.529 128.542C94.6417 128.631 93.7101 128.053 92.8227 126.718C92.6896 126.051 92.6453 124.761 92.7784 122.804C92.4678 121.202 92.4235 119.645 92.6453 118.133C92.3791 118.177 92.2904 117.51 92.4235 116.22L92.6896 114.218C92.7784 111.371 92.8227 109.814 92.8671 109.547L93.222 107.056C93.1333 104.119 93.1777 101.806 93.4439 100.027C93.3551 100.027 93.3995 98.4698 93.6213 95.3113L93.7101 94.8219C93.9319 93.3539 94.553 92.3307 95.6178 91.7969C96.5938 91.3075 97.703 90.9961 98.9452 90.8627L104.003 90.2399C105.423 90.0619 106.354 90.1954 106.709 90.6403C107.108 91.0406 107.286 91.4855 107.197 91.9303L106.975 93.5318C107.064 94.2881 107.064 95.0443 106.975 95.7116L106.754 97.1797C106.887 99.9823 107.02 101.717 107.197 102.385L106.975 103.764C106.931 104.03 106.931 105.454 106.975 108.079L108.04 106.744C110.125 104.297 111.456 102.562 112.077 101.539C112.743 101.005 113.275 100.472 113.586 99.8933C114.739 98.7812 115.715 98.2028 116.514 98.1139L117.446 97.9804C118.688 97.847 119.708 98.5587 120.507 100.16C120.995 100.783 121.616 101.851 122.415 103.274L122.947 104.342C122.991 104.119 123.08 103.986 123.169 103.808C123.302 102.785 124.012 100.383 125.298 96.6458C125.964 94.5105 126.541 92.998 127.029 92.1973C127.605 89.884 128.138 88.5049 128.581 88.0156C129.424 87.1704 130.312 86.7255 131.288 86.592C133.994 86.4586 136.7 86.2362 139.318 85.9692C140.826 86.1472 141.847 86.5476 142.335 87.2148C142.601 87.6597 142.734 88.0156 142.69 88.3715L142.601 88.8608C141.093 93.0425 140.294 95.3113 140.25 95.6672L138.874 100.916C138.786 101.539 138.031 104.03 136.612 108.435C136.567 108.657 136.345 109.28 135.946 110.347C135.325 112.038 134.837 113.639 134.482 115.063L134.038 116.664C133.817 118.31 132.707 120.446 130.711 123.204C129.912 123.871 129.247 124.272 128.67 124.361H128.581C127.65 124.45 126.896 124.449 126.363 124.405Z" fill="#FF4E52"></path>
  <path d="M112.077 101.451C112.077 101.495 112.077 101.495 112.077 101.451C112.077 101.495 112.077 101.495 112.077 101.451C112.122 101.451 112.122 101.451 112.077 101.451Z" fill="url(#paint26_linear)"></path>
  <path d="M116.47 98.871C117.712 98.7375 118.733 99.4493 119.531 101.051C119.975 101.674 120.64 102.741 121.439 104.165L121.971 105.232L122.992 104.254C122.193 102.786 120.995 100.65 120.552 100.028C119.753 98.4261 118.733 97.7144 117.49 97.8478L116.559 97.9813C115.76 98.0702 114.784 98.693 113.631 99.7607C113.586 99.8497 113.497 99.9387 113.453 99.9831C114.252 99.3603 114.962 98.96 115.583 98.9155L116.47 98.871Z" fill="url(#paint27_linear)"></path>
  <path d="M109.016 121.158C108.927 121.158 108.439 122.003 107.463 123.605C106.975 124.45 106.487 125.162 105.999 125.695C106.798 125.117 107.641 124.094 108.439 122.626C109.415 120.98 109.903 120.179 109.992 120.179C111.767 117.599 113.098 115.731 113.985 114.53C113.94 114.485 113.94 114.396 113.896 114.352C113.142 115.241 111.5 117.51 109.016 121.158Z" fill="url(#paint28_linear)"></path>
  <path d="M139.363 85.9253C136.745 86.1922 134.039 86.3702 131.332 86.5481C130.356 86.6816 129.469 87.1264 128.626 87.9716C128.582 88.0161 128.493 88.1496 128.404 88.283C128.981 87.8827 129.647 87.6158 130.312 87.5268C133.018 87.3933 135.68 87.1709 138.342 86.904C139.851 87.0819 140.871 87.5268 141.359 88.1941C141.625 88.5944 141.758 88.9948 141.714 89.3062L141.625 89.7956C140.117 93.9772 139.318 96.246 139.274 96.6019L137.899 101.851C137.81 102.474 137.056 104.965 135.636 109.369C135.592 109.592 135.37 110.215 134.97 111.238C134.349 112.928 133.861 114.53 133.506 115.953L133.063 117.555C132.841 119.112 131.82 121.158 130.046 123.694C130.268 123.516 130.534 123.338 130.756 123.16C132.752 120.402 133.817 118.222 134.083 116.621L134.527 115.019C134.882 113.595 135.37 111.994 135.991 110.304C136.39 109.28 136.656 108.658 136.656 108.391C138.076 103.987 138.83 101.495 138.919 100.873L140.294 95.6232C140.339 95.2673 141.137 92.9985 142.646 88.8169L142.734 88.3275C142.779 88.0161 142.646 87.6158 142.379 87.1709C141.891 86.5036 140.871 86.1032 139.363 85.9253Z" fill="url(#paint29_linear)"></path>
  <path d="M97.9248 91.7974L102.982 91.1746C104.402 90.9966 105.334 91.1301 105.689 91.575C106.088 91.9753 106.266 92.4202 106.177 92.865L105.955 94.4665C106.044 95.2228 106.044 95.979 105.955 96.6463L105.733 98.1144C105.866 100.917 105.999 102.652 106.177 103.319L105.999 104.698C105.955 104.965 105.955 106.389 105.999 108.969L107.02 108.035C106.975 105.632 106.975 103.986 107.02 103.72L107.242 102.341C107.108 101.673 106.931 99.9383 106.798 97.1357L107.02 95.6677C107.108 95.0004 107.108 94.2886 107.02 93.4878L107.242 91.8864C107.286 91.4415 107.153 90.9966 106.754 90.5963C106.354 90.1514 105.467 90.0179 104.047 90.1959L98.9896 90.8187C97.7473 90.9521 96.6382 91.2636 95.6622 91.7529C95.1298 92.0198 94.7305 92.3757 94.4199 92.865C94.5087 92.8206 94.5974 92.7316 94.6861 92.6871C95.5734 92.2422 96.6826 91.9308 97.9248 91.7974Z" fill="url(#paint30_linear)"></path>
  <path d="M205.689 82.3214L206.975 81.9655C209.948 81.5206 211.412 81.5206 211.412 81.9655C211.634 81.921 211.767 82.2769 211.856 83.0331V84.0563C211.101 85.9692 210.613 87.2593 210.303 87.9711L206.709 94.5105C205.999 96.4679 205.201 98.0249 204.402 99.1815C204.003 99.8488 203.293 100.827 202.273 102.162C202.273 102.296 201.873 102.874 201.075 103.986C201.03 105.498 200.986 106.433 200.986 106.833V108.346C200.986 109.725 200.942 110.703 200.808 111.282C200.986 111.593 201.075 111.904 201.075 112.305V114.885C201.075 115.864 200.32 116.798 198.768 117.777C198.324 117.91 197.925 118.043 197.57 118.177C197.126 118.132 196.86 118.132 196.727 118.177L193.843 118.978C192.867 119.334 192.335 119.512 192.202 119.556L192.113 119.601C190.471 120.045 189.407 119.645 188.874 118.399C188.785 118.355 188.741 118.088 188.697 117.643C188.697 117.243 188.741 116.664 188.785 115.953C188.652 113.951 188.608 111.815 188.608 109.591V107.99C187.942 106.166 187.233 105.009 186.478 104.431C184.526 102.251 183.595 101.094 183.595 100.916C183.24 99.9822 182.752 99.137 182.042 98.3808C181.909 98.3808 181.776 98.0694 181.687 97.4021C180.888 96.6903 180.09 95.4447 179.291 93.6653C178.936 92.9535 178.759 92.4197 178.759 92.0638C178.759 91.441 179.424 90.9071 180.711 90.3733C180.711 90.1064 182.53 89.3056 186.168 88.0156C187.454 87.6597 188.342 88.0156 188.83 89.0832C189.273 89.2612 190.028 90.3288 191.048 92.3307C191.359 92.82 191.891 93.2649 192.601 93.7542C192.956 94.1991 193.444 94.9553 194.065 95.934L194.154 95.8895C194.642 94.7329 195.44 93.1314 196.638 91.0851L198.501 87.3483C198.99 86.1471 199.389 85.2129 199.699 84.5457C200.187 84.2343 200.631 84.0118 201.075 83.8784L201.918 83.6559C202.273 83.567 203.515 83.1221 205.689 82.3214Z" fill="#2F3843"></path>
  <path d="M196.772 100.784L201.075 103.942C201.031 105.455 200.986 106.389 200.986 106.789V108.302C200.986 109.681 200.942 110.66 200.809 111.238C200.986 111.549 201.075 111.861 201.075 112.261L195.84 108.435L196.772 100.784Z" fill="url(#paint31_linear)"></path>
  <path d="M183.55 84.8135C187.498 85.6587 188.874 89.0396 188.874 89.0396C189.317 89.2176 190.072 90.2852 191.092 92.2871L189.495 93.2658L183.55 84.8135Z" fill="url(#paint32_linear)"></path>
  <path d="M207.02 78.6743C210.082 80.1868 211.413 81.9663 211.413 81.9663C211.634 81.9218 211.768 82.2777 211.856 83.0339V84.0571C211.102 85.97 210.614 87.2601 210.304 87.9719L206.71 94.5113L201.563 90.7745L207.02 78.6743Z" fill="url(#paint33_linear)"></path>
  <path d="M193.133 114.04L197.57 118.133C197.126 118.088 196.86 118.088 196.727 118.133L193.843 118.933C192.867 119.289 192.335 119.467 192.202 119.512L192.113 119.556C190.471 120.001 188.919 120.446 187.721 118.622L185.458 116.264L193.133 114.04Z" fill="url(#paint34_linear)"></path>
  <path d="M201.341 79.1636L202.628 78.8077C205.6 78.3628 207.064 78.3628 207.064 78.7632C207.286 78.7187 207.419 79.0746 207.508 79.8309V80.854C206.754 82.7669 206.266 84.057 205.955 84.7688L202.361 91.3082C201.652 93.2656 200.853 94.8226 200.054 95.9792C199.655 96.6465 198.945 97.6252 197.925 98.9598C197.925 99.0932 197.526 99.6715 196.727 100.784C196.683 102.296 196.638 103.23 196.638 103.631V105.143C196.638 106.522 196.594 107.501 196.461 108.079C196.638 108.391 196.727 108.702 196.727 109.103V111.683C196.727 112.661 195.973 113.596 194.42 114.574C193.976 114.708 193.577 114.841 193.222 114.975C192.779 114.93 192.512 114.93 192.379 114.975L189.495 115.775C188.519 116.131 187.987 116.309 187.854 116.354L187.765 116.398C186.124 116.843 185.059 116.443 184.526 115.197C184.438 115.153 184.393 114.886 184.349 114.441C184.349 114.04 184.393 113.462 184.438 112.795C184.305 110.793 184.26 108.658 184.26 106.433V104.876C183.595 103.052 182.885 101.896 182.131 101.318C180.179 99.1377 179.247 97.9811 179.247 97.8031C178.892 96.8689 178.404 96.0237 177.694 95.2674C177.561 95.2674 177.428 94.956 177.339 94.2443C176.541 93.5325 175.742 92.3314 174.944 90.5075C174.589 89.7957 174.411 89.2619 174.411 88.906C174.411 88.2832 175.077 87.7493 176.363 87.2155C176.363 86.9486 178.182 86.1478 181.82 84.8578C183.107 84.5019 183.994 84.8578 184.482 85.9254C184.926 86.1034 185.68 87.171 186.7 89.1729C187.011 89.6622 187.543 90.1071 188.253 90.5964C188.608 91.0413 189.096 91.7976 189.717 92.7762L189.806 92.7318C190.294 91.5751 191.093 89.9736 192.29 87.9273L194.154 84.1905C194.642 82.9894 195.041 82.0552 195.352 81.3434C195.84 81.032 196.283 80.8095 196.727 80.6761L197.57 80.4537C197.969 80.4092 199.212 79.9643 201.341 79.1636Z" fill="#FF4E52"></path>
  <path d="M181.154 85.7473C182.441 85.3915 183.328 85.7473 183.816 86.815C184.26 86.993 185.014 88.0606 186.035 90.0625C186.345 90.5518 186.878 90.9967 187.587 91.5305C187.942 91.9754 188.43 92.7316 189.051 93.7103L189.14 93.6658C189.14 93.6658 189.673 93.132 189.894 92.7316C189.362 91.8419 188.697 90.9967 188.342 90.5518C187.632 90.0625 187.144 89.5731 186.789 89.1283C185.768 87.1264 185.014 86.0587 184.571 85.8808C184.083 84.8131 183.195 84.4573 181.909 84.8131C178.271 86.1032 176.452 86.904 176.452 87.1709C175.254 87.6602 174.633 88.1496 174.544 88.7279C174.855 88.5055 175.254 88.3275 175.742 88.1051C175.697 87.8382 177.516 87.0374 181.154 85.7473Z" fill="url(#paint35_linear)"></path>
  <path d="M207.065 78.8073C207.065 78.3624 205.601 78.3624 202.629 78.8518L201.342 79.2077C199.212 80.0084 197.926 80.4533 197.571 80.5422L196.728 80.7647C196.284 80.8981 195.841 81.1206 195.353 81.432C195.264 81.6544 195.131 81.8768 195.042 82.0992C195.353 81.9213 195.663 81.7434 195.974 81.6989L196.817 81.4764C197.172 81.3875 198.414 80.9426 200.588 80.1419L201.874 79.786C204.847 79.3411 206.311 79.3411 206.311 79.786C206.533 79.7415 206.666 80.0974 206.755 80.8536V81.8768C206 83.7897 205.512 85.0798 205.202 85.7916L201.608 92.331C200.898 94.2884 200.1 95.8454 199.301 97.002C198.902 97.6693 198.192 98.648 197.172 99.9825C197.172 100.116 196.772 100.694 195.974 101.806C195.929 103.319 195.885 104.253 195.885 104.654V106.166C195.885 107.545 195.841 108.524 195.707 109.102C195.885 109.414 195.974 109.725 195.974 110.125V112.706C195.974 113.017 195.841 113.328 195.707 113.64C196.373 113.017 196.728 112.394 196.728 111.771V109.191C196.728 108.791 196.639 108.435 196.462 108.168C196.595 107.59 196.639 106.611 196.639 105.232V103.719C196.639 103.319 196.684 102.34 196.728 100.872C197.526 99.7601 197.926 99.1818 197.926 99.0483C198.946 97.7138 199.656 96.7351 200.055 96.0678C200.854 94.9112 201.652 93.3097 202.362 91.3968L205.956 84.8574C206.222 84.1456 206.755 82.8555 207.509 80.9426V79.9194C207.42 79.1187 207.287 78.7183 207.065 78.8073Z" fill="url(#paint36_linear)"></path>
  <path d="M71.2784 46.746C70.6955 49.2202 72.8605 49.9364 73.724 50.2069C78.1469 51.7063 86.492 53.6374 93.1988 50.0074C97.1858 47.8026 99.9295 43.9937 101.35 38.5938C102.149 35.4282 102.525 31.6746 102.423 27.5059L102.44 26.6004L101.51 26.4228C100.247 26.217 99.5544 26.4933 98.3974 26.4345C82.3591 25.5851 74.2725 40.4348 71.6821 45.6959C71.4943 46.0546 71.3863 46.4003 71.2784 46.746Z" fill="#2F7101"></path>
  <path d="M101.199 27.5396C101.911 56.228 80.9811 51.4932 74.0478 49.1694C72.6663 48.7366 71.7511 48.1462 72.6772 46.273C75.5893 40.4674 83.7751 24.2066 101.199 27.5396Z" fill="url(#paint37_linear)"></path>
  <path d="M74.8274 47.4023C78.1214 48.5101 85.9873 50.5187 91.7077 47.3767C94.9478 45.6211 97.2101 42.3826 98.3607 37.847C99.0235 35.3599 99.356 32.3518 99.3173 29.0757C85.9297 27.3867 78.806 38.0595 74.4583 46.6414C74.4713 46.7214 74.4022 47.307 74.8274 47.4023Z" fill="url(#paint38_linear)"></path>
  <path d="M97.2777 30.1453C95.6954 29.9912 89.8413 30.2827 85.6902 33.4988C79.4971 38.2766 75.8747 45.264 75.5509 46.3011C75.0781 47.9369 81.2583 46.1155 85.5086 44.5245C87.7471 43.6696 89.2948 42.5984 89.1869 42.9441C89.1027 43.9425 88.7615 45.8851 88.768 47.4433C88.8068 47.6831 88.7917 48.0959 89.4307 47.9924C99.1293 44.6165 99.0995 30.2606 97.2777 30.1453ZM90.5966 36.9715C89.6769 40.4029 78.2405 45.7015 77.6836 45.2993C77.0598 44.99 92.7878 28.7387 90.5966 36.9715Z" fill="#308300"></path>
  <path d="M77.6399 46.0436C95.4657 42.7466 97.3872 32.3419 97.3872 32.3419C97.3872 32.3419 90.9888 41.42 77.6399 46.0436Z" fill="#2F7101"></path>
  <path d="M102.371 90.4552C91.3494 92.2401 80.9927 84.9725 79.2704 74.3373C77.5482 63.702 85.082 53.5373 96.1038 51.7524C107.126 49.9675 117.482 57.2351 119.205 67.8704C120.94 78.5856 113.393 88.6704 102.371 90.4552Z" fill="#C31A00"></path>
  <path d="M102.191 89.336C112.556 87.6574 119.638 78.1339 118.007 68.0647C116.377 57.9955 106.652 51.1936 96.2857 52.8722C85.9198 54.5508 78.8385 64.0743 80.469 74.1435C82.0996 84.2128 91.8247 91.0147 102.191 89.336Z" fill="url(#paint39_linear)"></path>
  <path d="M101.905 87.5769C92.5608 89.0901 83.6892 82.895 82.2259 73.859C80.7626 64.8231 87.1588 56.2376 96.5833 54.7114C105.928 53.1982 114.787 59.3133 116.25 68.3493C117.713 77.3853 111.25 86.0636 101.905 87.5769Z" fill="url(#paint40_linear)"></path>
  <path d="M89.5309 61.2695C94.2798 61.239 97.0839 58.8155 97.4466 58.0182C97.7423 57.3138 91.3938 58.0957 89.5309 61.2695Z" fill="url(#paint41_linear)"></path>
  <path d="M96.5833 54.7114C87.2387 56.2247 80.7626 64.823 82.2259 73.859C82.5885 76.098 83.4173 78.1795 84.6196 80.0363C85.6514 81.3464 86.8084 81.4052 87.5401 81.3687C91.8919 80.9102 98.1239 76.3724 100.17 70.789C104.384 59.3566 97.8612 54.5045 96.5833 54.7114ZM88.7193 61.3189C90.36 57.2784 98.0101 56.9422 97.833 57.8736C97.2631 60.4277 88.0739 62.9005 88.7193 61.3189Z" fill="url(#paint42_linear)"></path>
  <path d="M116.25 68.3487C115.227 62.0315 110.673 57.1889 104.788 55.2696C103.672 54.9579 102.897 55.7399 103.741 57.4086C106.722 63.1626 111.924 78.076 98.1907 85.3878C96.7509 86.1133 96.7983 87.4186 98.1539 87.6914C99.3908 87.7373 100.615 87.7032 101.893 87.4963C111.25 86.063 117.713 77.3847 116.25 68.3487Z" fill="url(#paint43_linear)"></path>
  <path d="M98.1673 87.7714C101.666 87.6151 105.023 86.5791 107.838 84.7282C110.653 82.8774 112.939 80.2915 114.243 77.2082C115.639 74.1919 115.974 70.6911 115.363 67.4255C114.74 64.08 113.011 60.9954 110.481 58.5329C113.425 60.518 115.646 63.6049 116.548 67.1516C117.073 68.872 117.211 70.737 117.097 72.5609C116.982 74.3848 116.455 76.1934 115.743 77.8679C114.238 81.2299 111.659 84.0275 108.498 85.7701C105.338 87.5128 101.61 88.2806 98.1673 87.7714Z" fill="#FFA09D"></path>
  <path d="M131.551 73.7497C120.529 75.5345 110.172 68.267 108.45 57.6317C106.728 46.9964 114.262 36.8317 125.284 35.0468C136.305 33.262 146.662 40.5295 148.384 51.1648C150.107 61.8001 142.573 71.9648 131.551 73.7497Z" fill="#C31A00"></path>
  <path d="M131.355 72.5501C141.765 70.8644 148.883 61.3351 147.252 51.2659C145.621 41.1967 135.861 34.4005 125.451 36.0863C115.041 37.7721 107.923 47.3014 109.554 57.3706C111.185 67.4398 120.945 74.2359 131.355 72.5501Z" fill="url(#paint44_linear)"></path>
  <path d="M131.07 70.7908C121.726 72.3041 112.867 66.189 111.404 57.153C109.94 48.117 116.337 39.5315 125.761 38.0054C135.106 36.4921 143.964 42.6072 145.428 51.6432C146.891 60.6792 140.415 69.2776 131.07 70.7908Z" fill="url(#paint45_linear)"></path>
  <path d="M116.444 48.2949C121.785 46.8556 124.522 41.4887 124.392 40.689C124.17 39.8223 118.488 43.2042 116.444 48.2949Z" fill="url(#paint46_linear)"></path>
  <path d="M111.391 57.0728C111.922 60.3513 113.452 63.2219 115.544 65.5091C119.186 69.2687 126.385 62.6048 129.703 55.2563C132.753 48.2795 133.131 37.9606 129.727 37.6912C128.397 37.5783 127.093 37.6253 125.736 37.8452C116.404 39.4384 109.928 48.0368 111.391 57.0728ZM115.137 49.3269C116.652 43.5013 122.735 39.562 125.142 39.7467C127.149 39.996 120.66 48.5145 115.137 49.3269Z" fill="url(#paint47_linear)"></path>
  <path d="M126.463 69.1572C125.888 69.6605 125.992 70.3002 126.588 70.9423C127.997 71.0423 129.554 71.0364 130.991 70.8036C140.336 69.2904 146.812 60.692 145.349 51.656C144.714 47.7377 142.681 44.2922 139.832 41.8814C138.161 40.6749 137.49 42.0966 137.604 43.309C138.051 47.5859 137.921 58.9314 126.463 69.1572Z" fill="url(#paint48_linear)"></path>
  <path d="M126.666 70.9291C130.191 70.9327 133.641 69.9638 136.561 68.2599C139.469 66.476 141.835 63.8772 143.312 60.848C144.775 57.7389 145.203 54.3051 144.659 50.9466C144.035 47.601 142.373 44.4236 139.91 41.8682C142.867 43.9332 145.022 47.113 145.924 50.6597C146.381 52.473 146.519 54.3381 146.325 56.1749C146.131 58.0117 145.604 59.8203 144.812 61.5078C143.227 64.8827 140.475 67.6261 137.222 69.3018C133.889 70.9903 130.135 71.5982 126.666 70.9291Z" fill="#FFA09D"></path>
  <path d="M93.7119 60.2647C91.7001 61.0008 91.5188 59.8813 91.4411 59.4015C89.1598 48.8567 90.5869 38.9424 95.8887 28.1544C95.4376 27.8992 89.4778 25.0074 87.9431 23.1223C87.4401 22.5473 87.3106 21.7476 87.5934 20.9633C88.172 19.4745 90.1601 18.0858 91.5179 17.8659C92.5562 17.6978 93.126 18.1799 93.3246 18.394C93.9333 19.116 94.4621 19.851 94.978 20.506C96.4458 22.484 97.7021 24.1679 100.517 25.3534C108.881 28.9225 114.629 34.5566 121.766 42.1816C122.361 42.8237 122.558 43.5304 120.995 45.0144C119.084 46.883 117.889 46.5842 117.558 46.0633C111.301 38.296 105.576 33.3146 99.6166 30.4228C94.481 39.7068 93.341 47.8514 95.7821 58.3703C95.8857 59.01 95.8036 59.5157 93.7119 60.2647Z" fill="#2F7101"></path>
  <path d="M120.991 42.9625C114.172 35.7785 108.491 30.0515 100.126 26.4823C95.9039 24.7042 94.8916 21.996 92.4697 19.1878C91.6495 18.1717 87.6063 21.0421 88.8237 22.4862C90.6369 24.5724 93.5704 25.9848 96.3031 27.6758C96.7543 27.931 96.819 28.3308 96.6852 28.5166C91.7331 38.4274 89.762 48.0196 92.1599 59.284C92.2635 59.9237 92.4879 60.2977 93.5673 59.8767C94.6466 59.4557 94.7264 59.4428 94.6099 58.7231C92.3264 48.6711 92.9634 39.9515 98.8351 29.6456C98.997 29.127 99.5021 29.2093 99.7547 29.2505C108.158 33.0596 112.462 37.3683 118.519 45.4143C118.849 45.9352 119.81 45.2873 120.518 44.5982C121.079 44.0149 121.481 43.4575 120.991 42.9625Z" fill="url(#paint49_linear)"></path>
  <path d="M89.8299 29.7096C92.1569 29.9072 87.6454 30.3916 82.756 35.1224C80.5521 37.2026 78.0242 40.3199 75.5979 44.5698C77.6833 36.19 85.8408 29.3709 89.8299 29.7096Z" fill="#63C827"></path>
  <path d="M94.3501 36.3635C94.4581 36.0178 95.6584 32.2948 95.272 32.4394C94.9655 32.5711 93.8084 35.5486 93.7134 35.9743C93.5385 36.4129 93.6702 36.7198 93.8429 36.7739C93.9357 36.841 94.1882 36.8821 94.3501 36.3635Z" fill="#63C827"></path>
  <path d="M93.0642 38.0488C92.5504 39.9373 92.0473 42.3986 91.7041 44.8339C91.4558 46.8436 91.4341 48.7345 91.4664 50.4526C91.4772 51.0253 91.447 51.8508 91.7254 52.0519C92.0168 52.333 91.9586 50.455 91.9608 49.9622C92.0991 45.7547 93.036 41.4178 93.9276 38.3193C93.9686 38.0664 94.0766 37.7207 93.7182 37.5325C93.28 37.3573 93.1052 37.7959 93.0642 38.0488Z" fill="#63C827"></path>
  <path d="M91.9085 19.7718C92.3747 19.6142 94.762 24.2334 97.4559 25.6845C99.7915 26.9475 103.124 28.2952 106.891 30.8036C111.215 33.7142 116.011 38.0253 120.617 43.1878C121.107 43.6829 118.985 45.2574 118.655 44.7365C118.245 44.2284 110.712 33.1391 100.022 28.8796C98.9733 28.4751 98.8524 28.7408 98.5847 29.1124C96.8837 31.7677 94.9019 37.7508 94.9451 37.0053C94.9495 36.0199 96.5188 33.0577 95.6446 32.2145C95.3403 31.8535 96.506 29.9414 97.1363 28.7725C97.5659 27.8824 97.1946 27.6142 97.009 27.4802C96.3593 27.011 92.9509 24.6908 92.2235 23.7418C91.0342 21.9649 91.5221 19.9164 91.9085 19.7718Z" fill="#378A05"></path>
  <path d="M91.0404 23.5236C90.7597 23.8152 88.9163 22.5546 89.0804 21.5433C89.1905 20.7048 90.4318 19.7653 91.1117 19.409C91.3384 19.2902 91.3643 19.4501 91.2974 19.543C89.8403 21.174 91.6815 22.9274 91.0404 23.5236Z" fill="#63C827"></path>
  <path d="M92.4799 59.2333C92.6115 59.5402 92.7432 59.8471 93.5829 59.4649C94.196 59.2015 94.4097 59.0028 94.278 58.6959C94.2392 58.456 93.4794 55.7889 93.1989 53.0443C92.8428 49.3271 93.1365 46.0791 92.8602 45.3853C92.6508 44.5986 92.1628 49.6834 92.4067 51.6954C92.4822 52.668 91.5368 52.9031 91.5627 53.0631C91.4936 53.6487 92.2295 58.6994 92.4799 59.2333Z" fill="#328400"></path>
  <path d="M114.443 64.7848C117.014 66.9945 110.877 58.9615 112.449 49.434C112.572 48.6755 112.013 48.766 111.784 49.3775C109.472 54.8397 111.872 62.5752 114.443 64.7848Z" fill="#FFD5D4"></path>
  <path d="M112.856 47.8909C113.532 48.52 115.466 44.2678 114.454 44.5959C113.202 44.9628 112.181 47.2617 112.856 47.8909Z" fill="#FFD5D4"></path>
  <path d="M83.4433 78.3402C85.4399 81.0531 81.2503 71.8842 84.8015 62.9388C85.0972 62.2345 84.5122 62.1651 84.1237 62.8024C80.7907 67.5273 81.4596 75.7072 83.4433 78.3402Z" fill="#FFD5D4"></path>
  <path d="M114.843 49.5388C117.461 50.0175 127.322 46.123 125.543 39.1895C125.386 38.7227 125.638 41.8001 122.018 45.2585C118.612 48.5182 114.325 49.3765 114.843 49.5388Z" fill="#FFB4B2"></path>
  <path d="M88.3581 61.6239C89.936 62.7635 92.3018 63.201 95.1145 61.8428C96.8609 60.9856 98.7303 59.3699 98.1151 57.0897C98.0439 58.168 96.2004 59.9437 93.869 60.7315C89.3662 62.2813 87.894 61.2888 88.3581 61.6239Z" fill="#FFB4B2"></path>
  <path d="M136.567 43.0854C136.656 43.041 137.055 42.9075 137.809 42.6851C138.12 42.5071 138.608 42.2847 139.185 42.0178C140.427 41.5284 141.137 42.1068 141.359 43.7972L141.625 45.7991C141.714 48.0234 141.403 49.269 140.693 49.5359L140.249 49.7138C138.963 50.1142 138.253 50.3366 138.209 50.3811C137.854 50.648 137.588 50.826 137.454 50.8705L136.567 51.2263C135.813 51.5378 135.458 51.7602 135.458 51.9826L137.676 69.8659C137.898 71.7343 138.164 74.2255 138.519 77.3395C138.652 78.5407 137.454 79.6973 134.881 80.8094C134.881 80.8539 134.793 80.9429 134.526 81.0319C134.083 81.2098 132.397 81.8771 129.424 83.0337C128.537 83.3896 127.827 83.2117 127.339 82.4999C126.94 81.6102 126.629 80.3646 126.407 78.7631C126.363 78.8076 126.319 78.6296 126.274 78.2737C126.186 77.5175 125.742 74.1366 124.943 68.131C124.899 66.4405 124.899 65.5063 124.855 65.3284L124.234 60.4349C124.1 59.3673 123.879 58.2551 123.524 57.0985C122.725 57.5433 122.104 57.8547 121.705 58.0327C120.995 58.2996 119.753 58.8779 117.845 59.7231C117.224 59.9901 116.736 59.4117 116.336 58.0772C116.292 57.7658 116.203 57.3654 116.115 56.9205C116.026 55.7639 115.937 54.6962 115.804 53.6731C115.715 52.9168 115.937 52.3385 116.514 51.9381C116.514 51.8047 119.043 50.6035 124.189 48.4237C126.186 47.5785 127.383 47.0447 127.871 46.8667L129.025 46.4219C130.933 45.6211 133.417 44.509 136.567 43.0854Z" fill="#2F3843"></path>
  <path d="M121.706 58.0774C120.996 58.3443 119.754 58.9226 117.846 59.7678C117.846 59.7678 116.337 60.4796 112.167 56.9208L118.733 53.7178L121.706 58.0774Z" fill="url(#paint50_linear)"></path>
  <path d="M130.444 49.1802L135.458 51.9828L137.632 69.8661L131.731 66.2627L130.444 49.1802Z" fill="url(#paint51_linear)"></path>
  <path d="M135.369 39.126C141.225 40.0157 141.181 42.1065 141.358 43.797L141.625 45.7989L135.857 43.4411L135.369 39.126Z" fill="url(#paint52_linear)"></path>
  <path d="M132.397 73.9141L138.519 77.3395C138.652 78.5406 137.454 79.6972 134.881 80.8094C134.881 80.8539 134.792 80.9428 134.526 81.0318C134.082 81.2097 132.397 81.8325 129.424 83.0337C126.807 84.1013 123.08 80.7204 122.592 80.0086L132.397 73.9141Z" fill="url(#paint53_linear)"></path>
  <path d="M131.554 40.2842C131.643 40.2397 132.042 40.1062 132.797 39.8838C133.107 39.7059 133.595 39.4834 134.172 39.2165C135.414 38.7272 136.124 39.3055 136.346 40.9959L136.612 42.9978C136.701 45.2221 136.39 46.4677 135.68 46.7346L135.237 46.9126C133.95 47.3129 133.24 47.5354 133.196 47.5798C132.841 47.8468 132.575 47.9802 132.442 48.0692L131.554 48.4251C130.8 48.7365 130.401 49.0034 130.445 49.1813L132.664 67.0646C132.885 68.9331 133.152 71.4243 133.507 74.5383C133.64 75.7394 132.442 76.896 129.869 78.0082C129.869 78.0527 129.78 78.1416 129.514 78.2306C129.07 78.4085 127.384 79.0758 124.412 80.2325C123.48 80.5883 122.814 80.4549 122.326 79.7431C121.927 78.8534 121.617 77.6078 121.395 76.0063C121.35 76.0508 121.306 75.8728 121.262 75.517C121.173 74.7607 120.729 71.3798 119.931 65.3742C119.886 63.6837 119.886 62.7495 119.842 62.5716L119.221 57.6781C119.088 56.6105 118.866 55.4983 118.511 54.3417C117.712 54.7866 117.091 55.098 116.692 55.2759C115.982 55.5428 114.696 56.1211 112.832 56.9664C112.211 57.2333 111.723 56.655 111.324 55.3204C111.279 55.009 111.191 54.6086 111.102 54.1638C111.013 53.0071 110.924 51.9395 110.791 50.9163C110.703 50.16 110.924 49.5817 111.501 49.1813C111.501 49.0479 114.03 47.8468 119.176 45.667C121.173 44.8217 122.371 44.2879 122.859 44.11L124.012 43.6651C125.92 42.8199 128.405 41.7077 131.554 40.2842Z" fill="white"></path>
  <path d="M134.171 39.2151C133.55 39.4376 133.106 39.66 132.795 39.8824C132.041 40.1049 131.642 40.2828 131.553 40.2828C128.403 41.7063 125.919 42.774 124.011 43.5303L122.857 43.9751C122.369 44.1531 121.172 44.6869 119.175 45.5321C114.029 47.7119 111.456 48.9131 111.5 49.0465C111.101 49.3134 110.879 49.7138 110.79 50.1587C110.79 50.1587 110.79 50.1587 110.834 50.1142C110.834 49.9807 113.363 48.7796 118.51 46.5998C120.506 45.7546 121.704 45.2207 122.192 45.0428L123.346 44.5979C125.253 43.8417 127.738 42.7295 130.888 41.3505C130.976 41.306 131.376 41.1725 132.13 40.9501C132.44 40.7721 132.928 40.5052 133.505 40.2828C134.747 39.7935 135.457 40.3718 135.679 42.0622L135.945 44.0196C135.99 45.1318 135.945 45.977 135.812 46.5998C136.433 46.2439 136.7 44.9983 136.611 42.9075L136.345 40.9056C136.123 39.3041 135.413 38.7258 134.171 39.2151Z" fill="url(#paint54_linear)"></path>
  <path d="M129.779 50.2474L131.998 68.1307C132.219 69.9991 132.486 72.4903 132.841 75.6043C132.885 75.7823 132.841 76.0047 132.796 76.1826C133.329 75.6488 133.595 75.0705 133.506 74.4922C133.195 71.3782 132.885 68.887 132.663 67.0186L130.445 49.1353L129.779 50.2474Z" fill="url(#paint55_linear)"></path>
  <path d="M208.972 38.1475H210.657C214.473 38.5478 216.336 38.9927 216.203 39.571C216.469 39.571 216.558 40.0604 216.381 41.039L216.07 42.2846C214.517 44.42 213.497 45.8435 212.876 46.6443L206.31 53.6285C204.757 55.8083 203.293 57.4988 201.917 58.6999C201.208 59.4117 200.01 60.3904 198.279 61.725C198.235 61.8584 197.57 62.4812 196.194 63.5934C195.618 65.4618 195.307 66.6184 195.174 67.1522L194.686 69.0206C194.242 70.7556 193.843 71.9567 193.532 72.624C193.665 73.0689 193.665 73.5137 193.532 74.0031L192.689 77.206C192.379 78.4072 191.092 79.3414 188.874 80.0531C188.297 80.0531 187.765 80.0976 187.232 80.1866C186.7 80.0086 186.345 79.9197 186.168 79.9197L182.308 79.9642C180.977 80.0976 180.267 80.1866 180.09 80.1866H179.956C177.783 80.1866 176.54 79.3414 176.319 77.6064C176.23 77.5174 176.274 77.1615 176.363 76.6277C176.496 76.1384 176.718 75.4266 177.028 74.5814C177.516 72.0457 178.138 69.3765 178.892 66.6184L179.38 64.661C179.114 62.1698 178.626 60.4794 177.871 59.5007C176.185 56.1642 175.342 54.3848 175.387 54.1624C175.254 52.8723 174.899 51.6712 174.322 50.47C174.145 50.4256 174.1 49.9807 174.233 49.091C173.435 47.9788 172.858 46.1549 172.459 43.6637C172.281 42.685 172.237 41.9732 172.326 41.5284C172.503 40.7721 173.523 40.2828 175.298 40.0604C175.387 39.7045 177.916 39.3486 182.84 38.9037C184.526 38.9037 185.547 39.6155 185.768 41.128C186.256 41.4839 186.833 43.0854 187.499 45.888C187.765 46.5998 188.253 47.356 188.963 48.2013C189.273 48.8685 189.628 49.9807 190.072 51.4042H190.205C191.137 50.1586 192.689 48.4237 194.863 46.1994L198.413 42.1957C199.389 40.8611 200.187 39.7934 200.808 39.0817C201.518 38.8147 202.139 38.6813 202.716 38.6813H203.87C204.358 38.5923 206.043 38.4589 208.972 38.1475Z" fill="#2F3843"></path>
  <path d="M191.89 58.2549L196.238 63.5932C195.662 65.4616 195.351 66.6182 195.218 67.1521L194.73 69.0205C194.286 70.7554 193.887 71.9565 193.576 72.6238C193.709 73.0687 193.709 73.5135 193.576 74.0029L188.297 67.5079L191.89 58.2549Z" fill="url(#paint56_linear)"></path>
  <path d="M180.622 34.0547C185.236 36.4124 185.902 41.039 185.902 41.039C186.39 41.3949 186.966 42.9963 187.632 45.799L185.369 46.4662L180.622 34.0547Z" fill="url(#paint57_linear)"></path>
  <path d="M211.811 34.0103C215.139 36.8573 216.203 39.571 216.203 39.571C216.47 39.571 216.558 40.0603 216.381 41.039L216.07 42.2846C214.518 44.4199 213.497 45.8435 212.876 46.6442L206.31 53.6285L201.119 47.267L211.811 34.0103Z" fill="url(#paint58_linear)"></path>
  <path d="M183.107 73.6025L187.322 80.142C186.789 79.964 186.434 79.875 186.257 79.875L182.397 79.9195C181.066 80.053 180.356 80.142 180.179 80.142H180.046C177.872 80.142 175.742 80.2309 174.899 77.5618L172.858 73.8695L183.107 73.6025Z" fill="url(#paint59_linear)"></path>
  <path d="M204.624 32.8091H206.31C210.125 33.2095 211.989 33.6543 211.856 34.2326C212.122 34.2326 212.21 34.722 212.033 35.7007L211.722 36.9463C210.17 39.0816 209.149 40.5051 208.528 41.3059L201.962 48.2457C200.409 50.4255 198.945 52.1159 197.57 53.3171C196.86 54.0288 195.662 55.0075 193.932 56.3421C193.887 56.4756 193.222 57.0984 191.847 58.2105C191.27 60.0344 190.959 61.2355 190.826 61.7694L190.338 63.6378C189.895 65.3727 189.495 66.5738 189.185 67.2411C189.318 67.686 189.273 68.1308 189.185 68.6202L188.342 71.8232C188.031 73.0243 186.745 73.9585 184.526 74.6703C183.95 74.6703 183.417 74.7147 182.885 74.8037C182.352 74.6258 181.997 74.5368 181.82 74.5368L177.96 74.5813C176.629 74.7147 175.919 74.8037 175.742 74.8037H175.609C173.435 74.8037 172.193 73.9585 171.971 72.2235C171.882 72.1346 171.926 71.7787 172.015 71.2449C172.148 70.7555 172.37 70.0437 172.681 69.1985C173.169 66.6628 173.79 63.9937 174.544 61.2355L175.032 59.2782C174.766 56.787 174.278 55.0965 173.524 54.1178C171.838 50.7814 170.995 49.0019 171.039 48.7795C170.906 47.4894 170.551 46.2883 169.974 45.0872C169.797 45.0427 169.753 44.5978 169.886 43.7081C169.087 42.596 168.51 40.772 168.111 38.2808C167.934 37.3022 167.889 36.5904 167.978 36.1455C168.155 35.3893 169.176 34.8999 170.95 34.6775C171.039 34.3216 173.568 33.9657 178.493 33.5209C180.179 33.5209 181.199 34.2326 181.421 35.7451C181.909 36.101 182.486 37.7025 183.151 40.5051C183.417 41.2169 183.905 41.9732 184.615 42.8184C184.926 43.4857 185.281 44.5978 185.724 46.0214H185.857C186.789 44.7758 188.342 43.0408 190.516 40.8165L194.065 36.8128C195.041 35.4782 195.84 34.4106 196.461 33.6988C197.171 33.4319 197.792 33.2984 198.368 33.2984H199.522C200.01 33.2539 201.696 33.1205 204.624 32.8091Z" fill="white"></path>
  <path d="M177.384 34.4547C179.07 34.4547 180.09 35.1665 180.312 36.679C180.8 37.0349 181.377 38.6364 182.042 41.439C182.308 42.1508 182.796 42.907 183.506 43.7523C183.817 44.4195 184.172 45.4872 184.615 46.9552H184.749C184.749 46.9552 185.592 46.4659 185.946 46.021C185.547 44.7309 185.015 43.4409 184.749 42.8181C184.039 41.9728 183.551 41.2166 183.285 40.5048C182.619 37.6577 182.087 36.1007 181.554 35.7448C181.288 34.2323 180.312 33.5205 178.626 33.5205C173.657 33.9654 171.173 34.3213 171.084 34.6771C169.442 34.8551 168.466 35.2999 168.2 35.9672C168.644 35.7893 169.176 35.6558 169.886 35.6113C169.886 35.2555 172.415 34.8551 177.384 34.4547Z" fill="url(#paint60_linear)"></path>
  <path d="M211.856 34.2326C211.989 33.6988 210.17 33.2095 206.31 32.8091H204.624C201.696 33.1205 200.01 33.2539 199.522 33.2539H198.368C197.792 33.2539 197.126 33.3874 196.461 33.6543C196.283 33.8767 196.061 34.1437 195.84 34.4106C196.283 34.2771 196.727 34.1881 197.171 34.1881H198.324C198.812 34.1881 200.498 34.0547 203.426 33.7433H205.112C208.972 34.1437 210.791 34.5885 210.658 35.1668C210.924 35.1668 211.013 35.6562 210.835 36.6349L210.525 37.8805C208.972 40.0158 207.951 41.4393 207.33 42.2401L200.764 49.2244C199.211 51.4042 197.747 53.0946 196.372 54.2957C195.662 55.0075 194.464 55.9862 192.734 57.3208C192.69 57.4542 192.024 58.077 190.649 59.1892C190.072 61.0576 189.762 62.2142 189.628 62.7481L189.14 64.6165C188.697 66.3514 188.298 67.5525 187.987 68.2198C188.12 68.6647 188.076 69.1095 187.987 69.5989L187.144 72.8019C187.055 73.2022 186.789 73.5581 186.479 73.8695C187.499 73.2912 188.164 72.6239 188.342 71.8677L189.185 68.6647C189.318 68.1753 189.318 67.686 189.185 67.2856C189.495 66.6183 189.895 65.4172 190.338 63.6823L190.826 61.8139C190.959 61.28 191.314 60.1234 191.847 58.255C193.178 57.1428 193.888 56.52 193.932 56.3866C195.662 55.052 196.86 54.0733 197.57 53.3615C198.945 52.1604 200.409 50.47 201.962 48.2902L208.528 41.3504C209.105 40.5496 210.17 39.1261 211.723 36.9908L212.033 35.7451C212.211 34.722 212.166 34.2326 211.856 34.2326Z" fill="url(#paint61_linear)"></path>
  <path d="M163.852 51.4935C163.941 51.4935 164.34 51.449 165.05 51.36C165.405 51.2265 165.849 51.1376 166.425 51.0041C167.623 50.7817 168.2 51.449 168.067 53.006L167.934 54.8744C167.623 56.9207 167.091 57.9884 166.381 58.1218L165.937 58.2108C164.651 58.3443 164.03 58.4332 163.941 58.4332C163.542 58.6112 163.275 58.7002 163.142 58.7446L162.255 58.9226C161.501 59.056 161.101 59.234 161.101 59.4119L159.815 76.1386C159.682 77.8736 159.46 80.2313 159.194 83.1229C159.105 84.235 157.774 85.0803 155.245 85.6586C155.245 85.7031 155.112 85.7476 154.89 85.792C154.447 85.881 152.761 86.1479 149.877 86.6818C148.99 86.8597 148.369 86.5483 148.058 85.8365C147.836 84.9468 147.792 83.7457 147.881 82.2777C147.836 82.2777 147.792 82.1442 147.836 81.7883C147.881 81.0765 148.102 77.918 148.457 72.3128C148.723 70.8003 148.901 69.9106 148.901 69.7326L149.256 65.1506C149.345 64.1274 149.345 63.1043 149.256 61.9476C148.457 62.2145 147.836 62.348 147.437 62.437C146.771 62.5704 145.485 62.8373 143.621 63.2377C143 63.3712 142.645 62.7484 142.557 61.4583C142.601 61.1469 142.601 60.791 142.557 60.3461C142.69 59.2785 142.778 58.2553 142.867 57.3211C142.912 56.6093 143.266 56.12 143.843 55.8531C143.843 55.7196 146.416 55.0968 151.519 54.0736C153.471 53.6733 154.713 53.4063 155.156 53.3174L156.266 53.0949C158.218 52.7391 160.702 52.2052 163.852 51.4935Z" fill="#2F3843"></path>
  <path d="M147.526 62.437C146.86 62.5705 145.574 62.8374 143.71 63.2378C143.71 63.2378 142.202 63.5937 139.052 59.5899L145.662 57.855L147.526 62.437Z" fill="url(#paint62_linear)"></path>
  <path d="M157.108 55.8975L161.19 59.4118L159.903 76.1385L155.2 71.7344L157.108 55.8975Z" fill="url(#paint63_linear)"></path>
  <path d="M163.453 47.668C168.643 49.5364 168.2 51.4938 168.067 53.0508L167.934 54.9192L163.098 51.7162L163.453 47.668Z" fill="url(#paint64_linear)"></path>
  <path d="M154.357 78.897L159.282 83.1231C159.193 84.2353 157.862 85.0805 155.333 85.6588C155.333 85.7033 155.2 85.7478 154.978 85.7923C154.535 85.8813 152.893 86.1037 149.965 86.682C147.347 87.1713 144.597 83.39 144.286 82.6338L154.357 78.897Z" fill="url(#paint65_linear)"></path>
  <path d="M159.77 48.0237C159.859 48.0237 160.258 47.9792 160.968 47.8903C161.323 47.7568 161.767 47.6678 162.343 47.5344C163.541 47.312 164.118 47.9792 163.985 49.5362L163.852 51.4046C163.541 53.451 163.009 54.5187 162.299 54.6521L161.855 54.7411C160.569 54.8745 159.948 54.9635 159.859 54.9635C159.46 55.1415 159.193 55.2304 159.06 55.2749L158.173 55.4529C157.419 55.5863 157.019 55.7643 157.019 55.9422L155.733 72.6689C155.6 74.4038 155.378 76.7616 155.112 79.6532C155.023 80.7653 153.692 81.6105 151.163 82.1444C151.163 82.1889 151.03 82.2333 150.808 82.2778C150.365 82.3668 148.679 82.6337 145.795 83.1231C144.908 83.301 144.287 82.9896 143.976 82.2778C143.754 81.3881 143.71 80.187 143.798 78.719C143.754 78.719 143.71 78.5855 143.754 78.2296C143.798 77.5178 144.02 74.3593 144.375 68.7541C144.641 67.1971 144.819 66.3519 144.819 66.1739L145.174 61.5919C145.263 60.5687 145.263 59.5011 145.174 58.3889C144.375 58.6558 143.754 58.7893 143.355 58.8783C142.689 59.0117 141.403 59.2786 139.539 59.679C138.918 59.8125 138.563 59.1897 138.475 57.8996C138.519 57.5882 138.519 57.2323 138.475 56.7874C138.608 55.7198 138.696 54.6966 138.785 53.7624C138.83 53.0506 139.14 52.5613 139.761 52.2944C139.761 52.1609 142.334 51.5381 147.436 50.5149C149.389 50.1146 150.631 49.8476 151.074 49.7587L152.184 49.5362C154.18 49.2693 156.665 48.7355 159.77 48.0237Z" fill="white"></path>
  <path d="M162.388 47.5342C161.811 47.6677 161.323 47.7566 161.013 47.8901C160.303 47.9791 159.904 48.0236 159.815 48.0236C156.709 48.7353 154.225 49.2692 152.317 49.625L151.208 49.8475C150.764 49.9364 149.522 50.2034 147.57 50.6037C142.468 51.6714 139.939 52.2497 139.895 52.3832C139.495 52.5611 139.185 52.8725 139.052 53.2729H139.096C139.096 53.1394 141.669 52.5166 146.771 51.4935C148.723 51.0931 149.966 50.8262 150.409 50.7372L151.519 50.5148C153.382 50.1589 155.866 49.625 159.016 48.9133C159.105 48.9133 159.504 48.8688 160.214 48.7798C160.569 48.6464 161.013 48.5574 161.589 48.4239C162.787 48.2015 163.364 48.8688 163.231 50.4703L163.098 52.3387C162.92 53.3619 162.743 54.1181 162.477 54.6964C163.142 54.474 163.586 53.4063 163.897 51.4935L164.03 49.625C164.163 47.9791 163.586 47.3118 162.388 47.5342Z" fill="url(#paint66_linear)"></path>
  <path d="M156.309 56.7876L155.023 73.5143C154.89 75.2492 154.668 77.607 154.402 80.4986C154.402 80.6765 154.313 80.8545 154.269 81.0324C154.845 80.632 155.2 80.1872 155.2 79.6533C155.466 76.7618 155.688 74.404 155.821 72.6691L157.108 55.9424L156.309 56.7876Z" fill="url(#paint67_linear)"></path>
  <path d="M151.831 0C151.831 0 150.499 16.052 162.927 12.682C150.499 16.052 151.831 31.3945 151.831 31.3945C151.831 31.3945 153.162 15.3425 140.734 18.7125C153.162 15.3425 151.831 0 151.831 0Z" fill="url(#paint68_linear)"></path>
  <path d="M227.611 47.6328C227.611 47.6328 226.604 59.5334 236.001 57.035C226.604 59.5334 227.611 70.908 227.611 70.908C227.611 70.908 228.617 59.0074 219.221 61.5059C228.617 59.0074 227.611 47.6328 227.611 47.6328Z" fill="url(#paint69_linear)"></path>
  <path d="M76.3204 116.115C76.3204 118.261 74.5074 120.483 72.3002 121.096C70.0142 121.709 68.2012 120.406 68.2012 118.261C68.2012 116.115 70.0142 113.893 72.2214 113.28C74.5074 112.667 76.3204 113.97 76.3204 116.115Z" fill="url(#paint70_linear)"></path>
  <path d="M7.0367 88.3107C7.0367 90.3132 5.4654 92.3871 3.55251 92.9592C1.5713 93.5313 0 92.3156 0 90.3132C0 88.3107 1.5713 86.2368 3.48419 85.6647C5.4654 85.0925 7.0367 86.3083 7.0367 88.3107Z" fill="url(#paint71_linear)"></path>
  <path d="M232.753 93.7238C232.753 95.7262 231.181 97.8002 229.268 98.3723C227.287 98.9444 225.716 97.7287 225.716 95.7262C225.716 93.7238 227.287 91.6499 229.2 91.0777C231.181 90.5056 232.753 91.7214 232.753 93.7238Z" fill="url(#paint72_linear)"></path>
  <path d="M194.321 20.3077C194.321 22.4532 192.629 24.6752 190.569 25.2882C188.435 25.9012 186.743 24.5986 186.743 22.4532C186.743 20.3077 188.435 18.0856 190.495 17.4726C192.629 16.8596 194.321 18.1622 194.321 20.3077Z" fill="url(#paint73_linear)"></path>
  <defs>
    <linearGradient id="paint0_linear" x1="66.3012" y1="49.7818" x2="60.7369" y2="29.1026" gradientUnits="userSpaceOnUse">
      <stop stop-color="#FFF343"></stop>
      <stop offset="0.1924" stop-color="#FFED43"></stop>
      <stop offset="0.3782" stop-color="#F9DF43"></stop>
      <stop offset="0.5614" stop-color="#EECB41"></stop>
      <stop offset="0.743" stop-color="#DFB03F"></stop>
      <stop offset="0.9219" stop-color="#CF923D"></stop>
      <stop offset="1" stop-color="#C8853C"></stop>
    </linearGradient>
    <linearGradient id="paint1_linear" x1="39.7778" y1="140.176" x2="33.9581" y2="119.063" gradientUnits="userSpaceOnUse">
      <stop stop-color="#FFF343"></stop>
      <stop offset="0.1924" stop-color="#FFED43"></stop>
      <stop offset="0.3782" stop-color="#F9DF43"></stop>
      <stop offset="0.5614" stop-color="#EECB41"></stop>
      <stop offset="0.743" stop-color="#DFB03F"></stop>
      <stop offset="0.9219" stop-color="#CF923D"></stop>
      <stop offset="1" stop-color="#C8853C"></stop>
    </linearGradient>
    <linearGradient id="paint2_linear" x1="35.0858" y1="90.6041" x2="32.8619" y2="94.9315" gradientUnits="userSpaceOnUse">
      <stop stop-color="#F5EC47"></stop>
      <stop offset="0.1076" stop-color="#DED549"></stop>
      <stop offset="0.3013" stop-color="#AEA951"></stop>
      <stop offset="0.5591" stop-color="#747554"></stop>
      <stop offset="0.8676" stop-color="#414749"></stop>
      <stop offset="1" stop-color="#2F3843"></stop>
    </linearGradient>
    <linearGradient id="paint3_linear" x1="53.2287" y1="52.1736" x2="51.5467" y2="55.8001" gradientUnits="userSpaceOnUse">
      <stop stop-color="#F5EC47"></stop>
      <stop offset="0.1076" stop-color="#DED549"></stop>
      <stop offset="0.3013" stop-color="#AEA951"></stop>
      <stop offset="0.5591" stop-color="#747554"></stop>
      <stop offset="0.8676" stop-color="#414749"></stop>
      <stop offset="1" stop-color="#2F3843"></stop>
    </linearGradient>
    <linearGradient id="paint4_linear" x1="47.3059" y1="69.7577" x2="50.6149" y2="62.0752" gradientUnits="userSpaceOnUse">
      <stop stop-color="#F5EC47"></stop>
      <stop offset="0.1076" stop-color="#DED549"></stop>
      <stop offset="0.3013" stop-color="#AEA951"></stop>
      <stop offset="0.5591" stop-color="#747554"></stop>
      <stop offset="0.8676" stop-color="#414749"></stop>
      <stop offset="1" stop-color="#2F3843"></stop>
    </linearGradient>
    <linearGradient id="paint5_linear" x1="60.1849" y1="77.1079" x2="55.1666" y2="84.673" gradientUnits="userSpaceOnUse">
      <stop stop-color="#F5EC47"></stop>
      <stop offset="0.1076" stop-color="#DED549"></stop>
      <stop offset="0.3013" stop-color="#AEA951"></stop>
      <stop offset="0.5591" stop-color="#747554"></stop>
      <stop offset="0.8676" stop-color="#414749"></stop>
      <stop offset="1" stop-color="#2F3843"></stop>
    </linearGradient>
    <linearGradient id="paint6_linear" x1="35.7886" y1="110.489" x2="41.311" y2="101.919" gradientUnits="userSpaceOnUse">
      <stop stop-color="#F5EC47"></stop>
      <stop offset="0.1076" stop-color="#DED549"></stop>
      <stop offset="0.3013" stop-color="#AEA951"></stop>
      <stop offset="0.5591" stop-color="#747554"></stop>
      <stop offset="0.8676" stop-color="#414749"></stop>
      <stop offset="1" stop-color="#2F3843"></stop>
    </linearGradient>
    <linearGradient id="paint7_linear" x1="32.5627" y1="50.3837" x2="54.4388" y2="97.8672" gradientUnits="userSpaceOnUse">
      <stop stop-color="#FFF798"></stop>
      <stop offset="0.1049" stop-color="#F6EF98"></stop>
      <stop offset="0.2769" stop-color="#DADE96"></stop>
      <stop offset="0.4947" stop-color="#B3C695"></stop>
      <stop offset="0.7474" stop-color="#87AD93"></stop>
      <stop offset="1" stop-color="#639990"></stop>
    </linearGradient>
    <linearGradient id="paint8_linear" x1="21.5341" y1="55.4772" x2="43.4006" y2="102.94" gradientUnits="userSpaceOnUse">
      <stop stop-color="#FFF798"></stop>
      <stop offset="0.1049" stop-color="#F6EF98"></stop>
      <stop offset="0.2769" stop-color="#DADE96"></stop>
      <stop offset="0.4947" stop-color="#B3C695"></stop>
      <stop offset="0.7474" stop-color="#87AD93"></stop>
      <stop offset="1" stop-color="#639990"></stop>
    </linearGradient>
    <linearGradient id="paint9_linear" x1="39.2539" y1="47.306" x2="61.1248" y2="94.7783" gradientUnits="userSpaceOnUse">
      <stop stop-color="#FFF798"></stop>
      <stop offset="0.1049" stop-color="#F6EF98"></stop>
      <stop offset="0.2769" stop-color="#DADE96"></stop>
      <stop offset="0.4947" stop-color="#B3C695"></stop>
      <stop offset="0.7474" stop-color="#87AD93"></stop>
      <stop offset="1" stop-color="#639990"></stop>
    </linearGradient>
    <linearGradient id="paint10_linear" x1="152.845" y1="116.082" x2="154.573" y2="113.084" gradientUnits="userSpaceOnUse">
      <stop stop-color="#F5EC47"></stop>
      <stop offset="0.1076" stop-color="#DED549"></stop>
      <stop offset="0.3013" stop-color="#AEA951"></stop>
      <stop offset="0.5591" stop-color="#747554"></stop>
      <stop offset="0.8676" stop-color="#414749"></stop>
      <stop offset="1" stop-color="#2F3843"></stop>
    </linearGradient>
    <linearGradient id="paint11_linear" x1="163.315" y1="104.933" x2="159.405" y2="111.539" gradientUnits="userSpaceOnUse">
      <stop stop-color="#F5EC47"></stop>
      <stop offset="0.1076" stop-color="#DED549"></stop>
      <stop offset="0.3013" stop-color="#AEA951"></stop>
      <stop offset="0.5591" stop-color="#747554"></stop>
      <stop offset="0.8676" stop-color="#414749"></stop>
      <stop offset="1" stop-color="#2F3843"></stop>
    </linearGradient>
    <linearGradient id="paint12_linear" x1="166.549" y1="112.884" x2="169.86" y2="108.175" gradientUnits="userSpaceOnUse">
      <stop stop-color="#F5EC47"></stop>
      <stop offset="0.1076" stop-color="#DED549"></stop>
      <stop offset="0.3013" stop-color="#AEA951"></stop>
      <stop offset="0.5591" stop-color="#747554"></stop>
      <stop offset="0.8676" stop-color="#414749"></stop>
      <stop offset="1" stop-color="#2F3843"></stop>
    </linearGradient>
    <linearGradient id="paint13_linear" x1="170.265" y1="89.8676" x2="168.19" y2="93.7705" gradientUnits="userSpaceOnUse">
      <stop stop-color="#F5EC47"></stop>
      <stop offset="0.1076" stop-color="#DED549"></stop>
      <stop offset="0.3013" stop-color="#AEA951"></stop>
      <stop offset="0.5591" stop-color="#747554"></stop>
      <stop offset="0.8676" stop-color="#414749"></stop>
      <stop offset="1" stop-color="#2F3843"></stop>
    </linearGradient>
    <linearGradient id="paint14_linear" x1="159.295" y1="87.3408" x2="165.885" y2="111.727" gradientUnits="userSpaceOnUse">
      <stop stop-color="#FFF798"></stop>
      <stop offset="0.1049" stop-color="#F6EF98"></stop>
      <stop offset="0.2769" stop-color="#DADE96"></stop>
      <stop offset="0.4947" stop-color="#B3C695"></stop>
      <stop offset="0.7474" stop-color="#87AD93"></stop>
      <stop offset="1" stop-color="#639990"></stop>
    </linearGradient>
    <linearGradient id="paint15_linear" x1="156.462" y1="86.136" x2="163.424" y2="111.901" gradientUnits="userSpaceOnUse">
      <stop stop-color="#FFF798"></stop>
      <stop offset="0.1049" stop-color="#F6EF98"></stop>
      <stop offset="0.2769" stop-color="#DADE96"></stop>
      <stop offset="0.4947" stop-color="#B3C695"></stop>
      <stop offset="0.7474" stop-color="#87AD93"></stop>
      <stop offset="1" stop-color="#639990"></stop>
    </linearGradient>
    <linearGradient id="paint16_linear" x1="161.524" y1="87.6924" x2="167.726" y2="110.643" gradientUnits="userSpaceOnUse">
      <stop stop-color="#FFF798"></stop>
      <stop offset="0.1049" stop-color="#F6EF98"></stop>
      <stop offset="0.2769" stop-color="#DADE96"></stop>
      <stop offset="0.4947" stop-color="#B3C695"></stop>
      <stop offset="0.7474" stop-color="#87AD93"></stop>
      <stop offset="1" stop-color="#639990"></stop>
    </linearGradient>
    <linearGradient id="paint17_linear" x1="78.8629" y1="60.0054" x2="75.0817" y2="66.7696" gradientUnits="userSpaceOnUse">
      <stop stop-color="#F5EC47"></stop>
      <stop offset="0.1076" stop-color="#DED549"></stop>
      <stop offset="0.3013" stop-color="#AEA951"></stop>
      <stop offset="0.5591" stop-color="#747554"></stop>
      <stop offset="0.8676" stop-color="#414749"></stop>
      <stop offset="1" stop-color="#2F3843"></stop>
    </linearGradient>
    <linearGradient id="paint18_linear" x1="88.2078" y1="87.347" x2="84.8957" y2="92.0549" gradientUnits="userSpaceOnUse">
      <stop stop-color="#F5EC47"></stop>
      <stop offset="0.1076" stop-color="#DED549"></stop>
      <stop offset="0.3013" stop-color="#AEA951"></stop>
      <stop offset="0.5591" stop-color="#747554"></stop>
      <stop offset="0.8676" stop-color="#414749"></stop>
      <stop offset="1" stop-color="#2F3843"></stop>
    </linearGradient>
    <linearGradient id="paint19_linear" x1="64.7106" y1="103.437" x2="70.0098" y2="97.4982" gradientUnits="userSpaceOnUse">
      <stop stop-color="#F5EC47"></stop>
      <stop offset="0.1076" stop-color="#DED549"></stop>
      <stop offset="0.3013" stop-color="#AEA951"></stop>
      <stop offset="0.5591" stop-color="#747554"></stop>
      <stop offset="0.8676" stop-color="#414749"></stop>
      <stop offset="1" stop-color="#2F3843"></stop>
    </linearGradient>
    <linearGradient id="paint20_linear" x1="72.0479" y1="56.6572" x2="82.176" y2="94.1365" gradientUnits="userSpaceOnUse">
      <stop stop-color="#FFF798"></stop>
      <stop offset="0.1049" stop-color="#F6EF98"></stop>
      <stop offset="0.2769" stop-color="#DADE96"></stop>
      <stop offset="0.4947" stop-color="#B3C695"></stop>
      <stop offset="0.7474" stop-color="#87AD93"></stop>
      <stop offset="1" stop-color="#639990"></stop>
    </linearGradient>
    <linearGradient id="paint21_linear" x1="110.222" y1="93.6062" x2="108.54" y2="96.9453" gradientUnits="userSpaceOnUse">
      <stop stop-color="#F5EC47"></stop>
      <stop offset="0.1076" stop-color="#DED549"></stop>
      <stop offset="0.3013" stop-color="#AEA951"></stop>
      <stop offset="0.5591" stop-color="#747554"></stop>
      <stop offset="0.8676" stop-color="#414749"></stop>
      <stop offset="1" stop-color="#2F3843"></stop>
    </linearGradient>
    <linearGradient id="paint22_linear" x1="122.844" y1="100.107" x2="120.452" y2="102.458" gradientUnits="userSpaceOnUse">
      <stop stop-color="#F5EC47"></stop>
      <stop offset="0.1076" stop-color="#DED549"></stop>
      <stop offset="0.3013" stop-color="#AEA951"></stop>
      <stop offset="0.5591" stop-color="#747554"></stop>
      <stop offset="0.8676" stop-color="#414749"></stop>
      <stop offset="1" stop-color="#2F3843"></stop>
    </linearGradient>
    <linearGradient id="paint23_linear" x1="144.741" y1="93.9745" x2="138.546" y2="98.219" gradientUnits="userSpaceOnUse">
      <stop stop-color="#F5EC47"></stop>
      <stop offset="0.1076" stop-color="#DED549"></stop>
      <stop offset="0.3013" stop-color="#AEA951"></stop>
      <stop offset="0.5591" stop-color="#747554"></stop>
      <stop offset="0.8676" stop-color="#414749"></stop>
      <stop offset="1" stop-color="#2F3843"></stop>
    </linearGradient>
    <linearGradient id="paint24_linear" x1="97.9902" y1="131.948" x2="103.676" y2="127.774" gradientUnits="userSpaceOnUse">
      <stop stop-color="#F5EC47"></stop>
      <stop offset="0.1076" stop-color="#DED549"></stop>
      <stop offset="0.3013" stop-color="#AEA951"></stop>
      <stop offset="0.5591" stop-color="#747554"></stop>
      <stop offset="0.8676" stop-color="#414749"></stop>
      <stop offset="1" stop-color="#2F3843"></stop>
    </linearGradient>
    <linearGradient id="paint25_linear" x1="125.783" y1="127.548" x2="129.447" y2="124.262" gradientUnits="userSpaceOnUse">
      <stop stop-color="#F5EC47"></stop>
      <stop offset="0.1076" stop-color="#DED549"></stop>
      <stop offset="0.3013" stop-color="#AEA951"></stop>
      <stop offset="0.5591" stop-color="#747554"></stop>
      <stop offset="0.8676" stop-color="#414749"></stop>
      <stop offset="1" stop-color="#2F3843"></stop>
    </linearGradient>
    <linearGradient id="paint26_linear" x1="113.849" y1="89.276" x2="118.125" y2="124.519" gradientUnits="userSpaceOnUse">
      <stop stop-color="#FFF798"></stop>
      <stop offset="0.1049" stop-color="#F6EF98"></stop>
      <stop offset="0.2769" stop-color="#DADE96"></stop>
      <stop offset="0.4947" stop-color="#B3C695"></stop>
      <stop offset="0.7474" stop-color="#87AD93"></stop>
      <stop offset="1" stop-color="#639990"></stop>
    </linearGradient>
    <linearGradient id="paint27_linear" x1="120.285" y1="87.8765" x2="124.781" y2="124.94" gradientUnits="userSpaceOnUse">
      <stop stop-color="#FFF798"></stop>
      <stop offset="0.1049" stop-color="#F6EF98"></stop>
      <stop offset="0.2769" stop-color="#DADE96"></stop>
      <stop offset="0.4947" stop-color="#B3C695"></stop>
      <stop offset="0.7474" stop-color="#87AD93"></stop>
      <stop offset="1" stop-color="#639990"></stop>
    </linearGradient>
    <linearGradient id="paint28_linear" x1="114.559" y1="88.5577" x2="119.059" y2="125.648" gradientUnits="userSpaceOnUse">
      <stop stop-color="#FFF798"></stop>
      <stop offset="0.1049" stop-color="#F6EF98"></stop>
      <stop offset="0.2769" stop-color="#DADE96"></stop>
      <stop offset="0.4947" stop-color="#B3C695"></stop>
      <stop offset="0.7474" stop-color="#87AD93"></stop>
      <stop offset="1" stop-color="#639990"></stop>
    </linearGradient>
    <linearGradient id="paint29_linear" x1="135.915" y1="85.9714" x2="140.414" y2="123.059" gradientUnits="userSpaceOnUse">
      <stop stop-color="#FFF798"></stop>
      <stop offset="0.1049" stop-color="#F6EF98"></stop>
      <stop offset="0.2769" stop-color="#DADE96"></stop>
      <stop offset="0.4947" stop-color="#B3C695"></stop>
      <stop offset="0.7474" stop-color="#87AD93"></stop>
      <stop offset="1" stop-color="#639990"></stop>
    </linearGradient>
    <linearGradient id="paint30_linear" x1="102.174" y1="90.0672" x2="106.672" y2="127.146" gradientUnits="userSpaceOnUse">
      <stop stop-color="#FFF798"></stop>
      <stop offset="0.1049" stop-color="#F6EF98"></stop>
      <stop offset="0.2769" stop-color="#DADE96"></stop>
      <stop offset="0.4947" stop-color="#B3C695"></stop>
      <stop offset="0.7474" stop-color="#87AD93"></stop>
      <stop offset="1" stop-color="#639990"></stop>
    </linearGradient>
    <linearGradient id="paint31_linear" x1="201.983" y1="102.843" x2="197.908" y2="107.884" gradientUnits="userSpaceOnUse">
      <stop stop-color="#F5EC47"></stop>
      <stop offset="0.1076" stop-color="#DED549"></stop>
      <stop offset="0.3013" stop-color="#AEA951"></stop>
      <stop offset="0.5591" stop-color="#747554"></stop>
      <stop offset="0.8676" stop-color="#414749"></stop>
      <stop offset="1" stop-color="#2F3843"></stop>
    </linearGradient>
    <linearGradient id="paint32_linear" x1="188.21" y1="87.2906" x2="186.77" y2="89.6423" gradientUnits="userSpaceOnUse">
      <stop stop-color="#F5EC47"></stop>
      <stop offset="0.1076" stop-color="#DED549"></stop>
      <stop offset="0.3013" stop-color="#AEA951"></stop>
      <stop offset="0.5591" stop-color="#747554"></stop>
      <stop offset="0.8676" stop-color="#414749"></stop>
      <stop offset="1" stop-color="#2F3843"></stop>
    </linearGradient>
    <linearGradient id="paint33_linear" x1="210.586" y1="82.5857" x2="204.517" y2="88.6593" gradientUnits="userSpaceOnUse">
      <stop stop-color="#F5EC47"></stop>
      <stop offset="0.1076" stop-color="#DED549"></stop>
      <stop offset="0.3013" stop-color="#AEA951"></stop>
      <stop offset="0.5591" stop-color="#747554"></stop>
      <stop offset="0.8676" stop-color="#414749"></stop>
      <stop offset="1" stop-color="#2F3843"></stop>
    </linearGradient>
    <linearGradient id="paint34_linear" x1="189.686" y1="118.815" x2="193.434" y2="116.12" gradientUnits="userSpaceOnUse">
      <stop stop-color="#F5EC47"></stop>
      <stop offset="0.1076" stop-color="#DED549"></stop>
      <stop offset="0.3013" stop-color="#AEA951"></stop>
      <stop offset="0.5591" stop-color="#747554"></stop>
      <stop offset="0.8676" stop-color="#414749"></stop>
      <stop offset="1" stop-color="#2F3843"></stop>
    </linearGradient>
    <linearGradient id="paint35_linear" x1="182.184" y1="84.3478" x2="190.655" y2="115.695" gradientUnits="userSpaceOnUse">
      <stop stop-color="#FFF798"></stop>
      <stop offset="0.1049" stop-color="#F6EF98"></stop>
      <stop offset="0.2769" stop-color="#DADE96"></stop>
      <stop offset="0.4947" stop-color="#B3C695"></stop>
      <stop offset="0.7474" stop-color="#87AD93"></stop>
      <stop offset="1" stop-color="#639990"></stop>
    </linearGradient>
    <linearGradient id="paint36_linear" x1="201.286" y1="79.1865" x2="209.756" y2="110.53" gradientUnits="userSpaceOnUse">
      <stop stop-color="#FFF798"></stop>
      <stop offset="0.1049" stop-color="#F6EF98"></stop>
      <stop offset="0.2769" stop-color="#DADE96"></stop>
      <stop offset="0.4947" stop-color="#B3C695"></stop>
      <stop offset="0.7474" stop-color="#87AD93"></stop>
      <stop offset="1" stop-color="#639990"></stop>
    </linearGradient>
    <linearGradient id="paint37_linear" x1="91.9249" y1="47.6761" x2="83.0265" y2="30.3841" gradientUnits="userSpaceOnUse">
      <stop stop-color="#388D00"></stop>
      <stop offset="1" stop-color="#4CA915"></stop>
    </linearGradient>
    <linearGradient id="paint38_linear" x1="94.2742" y1="45.6371" x2="83.1541" y2="34.2453" gradientUnits="userSpaceOnUse">
      <stop stop-color="#388D00"></stop>
      <stop offset="1" stop-color="#388D00"></stop>
    </linearGradient>
    <linearGradient id="paint39_linear" x1="114.036" y1="82.1668" x2="84.4248" y2="60.1449" gradientUnits="userSpaceOnUse">
      <stop stop-color="#FF2600"></stop>
      <stop offset="1" stop-color="#FFADA6"></stop>
    </linearGradient>
    <linearGradient id="paint40_linear" x1="112.478" y1="81.172" x2="86.2265" y2="61.3188" gradientUnits="userSpaceOnUse">
      <stop stop-color="#D01D00"></stop>
      <stop offset="1" stop-color="#FF2600"></stop>
    </linearGradient>
    <linearGradient id="paint41_linear" x1="94.4238" y1="60.7527" x2="92.4798" y2="58.4154" gradientUnits="userSpaceOnUse">
      <stop stop-color="#CA1C00"></stop>
      <stop offset="1" stop-color="#D41E00"></stop>
    </linearGradient>
    <linearGradient id="paint42_linear" x1="99.5269" y1="72.1675" x2="83.7076" y2="63.8839" gradientUnits="userSpaceOnUse">
      <stop stop-color="#E94E45"></stop>
      <stop offset="1" stop-color="#FFA09D"></stop>
    </linearGradient>
    <linearGradient id="paint43_linear" x1="115.193" y1="79.4251" x2="93.0214" y2="66.4108" gradientUnits="userSpaceOnUse">
      <stop stop-color="#CA1C00"></stop>
      <stop offset="1" stop-color="#D41E00"></stop>
    </linearGradient>
    <linearGradient id="paint44_linear" x1="144.163" y1="64.5844" x2="112.682" y2="44.2172" gradientUnits="userSpaceOnUse">
      <stop stop-color="#FF2600"></stop>
      <stop offset="1" stop-color="#FFADA6"></stop>
    </linearGradient>
    <linearGradient id="paint45_linear" x1="139.765" y1="66.1586" x2="116.83" y2="42.4029" gradientUnits="userSpaceOnUse">
      <stop stop-color="#D01D00"></stop>
      <stop offset="1" stop-color="#FF2600"></stop>
    </linearGradient>
    <linearGradient id="paint46_linear" x1="122.126" y1="45.3553" x2="118.778" y2="43.6018" gradientUnits="userSpaceOnUse">
      <stop stop-color="#CA1C00"></stop>
      <stop offset="1" stop-color="#D41E00"></stop>
    </linearGradient>
    <linearGradient id="paint47_linear" x1="129.716" y1="55.4045" x2="113.086" y2="46.6963" gradientUnits="userSpaceOnUse">
      <stop stop-color="#E94E45"></stop>
      <stop offset="1" stop-color="#FFA09D"></stop>
    </linearGradient>
    <linearGradient id="paint48_linear" x1="144.007" y1="62.7007" x2="128.142" y2="53.3885" gradientUnits="userSpaceOnUse">
      <stop stop-color="#CA1C00"></stop>
      <stop offset="1" stop-color="#D41E00"></stop>
    </linearGradient>
    <linearGradient id="paint49_linear" x1="106.615" y1="51.2762" x2="82.7221" y2="26.2243" gradientUnits="userSpaceOnUse">
      <stop stop-color="#388D00"></stop>
      <stop offset="1" stop-color="#4CA915"></stop>
    </linearGradient>
    <linearGradient id="paint50_linear" x1="115.592" y1="59.9356" x2="118.146" y2="54.7557" gradientUnits="userSpaceOnUse">
      <stop stop-color="#F5EC47"></stop>
      <stop offset="0.1076" stop-color="#DED549"></stop>
      <stop offset="0.3013" stop-color="#AEA951"></stop>
      <stop offset="0.5591" stop-color="#747554"></stop>
      <stop offset="0.8676" stop-color="#414749"></stop>
      <stop offset="1" stop-color="#2F3843"></stop>
    </linearGradient>
    <linearGradient id="paint51_linear" x1="138.238" y1="53.1434" x2="132.974" y2="61.2648" gradientUnits="userSpaceOnUse">
      <stop stop-color="#F5EC47"></stop>
      <stop offset="0.1076" stop-color="#DED549"></stop>
      <stop offset="0.3013" stop-color="#AEA951"></stop>
      <stop offset="0.5591" stop-color="#747554"></stop>
      <stop offset="0.8676" stop-color="#414749"></stop>
      <stop offset="1" stop-color="#2F3843"></stop>
    </linearGradient>
    <linearGradient id="paint52_linear" x1="140.06" y1="39.9604" x2="138.042" y2="43.331" gradientUnits="userSpaceOnUse">
      <stop stop-color="#F5EC47"></stop>
      <stop offset="0.1076" stop-color="#DED549"></stop>
      <stop offset="0.3013" stop-color="#AEA951"></stop>
      <stop offset="0.5591" stop-color="#747554"></stop>
      <stop offset="0.8676" stop-color="#414749"></stop>
      <stop offset="1" stop-color="#2F3843"></stop>
    </linearGradient>
    <linearGradient id="paint53_linear" x1="128.507" y1="82.0284" x2="132.183" y2="76.6669" gradientUnits="userSpaceOnUse">
      <stop stop-color="#F5EC47"></stop>
      <stop offset="0.1076" stop-color="#DED549"></stop>
      <stop offset="0.3013" stop-color="#AEA951"></stop>
      <stop offset="0.5591" stop-color="#747554"></stop>
      <stop offset="0.8676" stop-color="#414749"></stop>
      <stop offset="1" stop-color="#2F3843"></stop>
    </linearGradient>
    <linearGradient id="paint54_linear" x1="123.345" y1="43.6522" x2="136.327" y2="75.4865" gradientUnits="userSpaceOnUse">
      <stop stop-color="#FFF798"></stop>
      <stop offset="0.1049" stop-color="#F6EF98"></stop>
      <stop offset="0.2769" stop-color="#DADE96"></stop>
      <stop offset="0.4947" stop-color="#B3C695"></stop>
      <stop offset="0.7474" stop-color="#87AD93"></stop>
      <stop offset="1" stop-color="#639990"></stop>
    </linearGradient>
    <linearGradient id="paint55_linear" x1="128.89" y1="40.6659" x2="142.13" y2="73.1312" gradientUnits="userSpaceOnUse">
      <stop stop-color="#FFF798"></stop>
      <stop offset="0.1049" stop-color="#F6EF98"></stop>
      <stop offset="0.2769" stop-color="#DADE96"></stop>
      <stop offset="0.4947" stop-color="#B3C695"></stop>
      <stop offset="0.7474" stop-color="#87AD93"></stop>
      <stop offset="1" stop-color="#639990"></stop>
    </linearGradient>
    <linearGradient id="paint56_linear" x1="197.75" y1="62.5169" x2="191.044" y2="67.4696" gradientUnits="userSpaceOnUse">
      <stop stop-color="#F5EC47"></stop>
      <stop offset="0.1076" stop-color="#DED549"></stop>
      <stop offset="0.3013" stop-color="#AEA951"></stop>
      <stop offset="0.5591" stop-color="#747554"></stop>
      <stop offset="0.8676" stop-color="#414749"></stop>
      <stop offset="1" stop-color="#2F3843"></stop>
    </linearGradient>
    <linearGradient id="paint57_linear" x1="185.63" y1="38.664" x2="183.075" y2="41.1236" gradientUnits="userSpaceOnUse">
      <stop stop-color="#F5EC47"></stop>
      <stop offset="0.1076" stop-color="#DED549"></stop>
      <stop offset="0.3013" stop-color="#AEA951"></stop>
      <stop offset="0.5591" stop-color="#747554"></stop>
      <stop offset="0.8676" stop-color="#414749"></stop>
      <stop offset="1" stop-color="#2F3843"></stop>
    </linearGradient>
    <linearGradient id="paint58_linear" x1="215.02" y1="40.0853" x2="205.499" y2="45.6782" gradientUnits="userSpaceOnUse">
      <stop stop-color="#F5EC47"></stop>
      <stop offset="0.1076" stop-color="#DED549"></stop>
      <stop offset="0.3013" stop-color="#AEA951"></stop>
      <stop offset="0.5591" stop-color="#747554"></stop>
      <stop offset="0.8676" stop-color="#414749"></stop>
      <stop offset="1" stop-color="#2F3843"></stop>
    </linearGradient>
    <linearGradient id="paint59_linear" x1="177.268" y1="78.4091" x2="182.806" y2="76.2672" gradientUnits="userSpaceOnUse">
      <stop stop-color="#F5EC47"></stop>
      <stop offset="0.1076" stop-color="#DED549"></stop>
      <stop offset="0.3013" stop-color="#AEA951"></stop>
      <stop offset="0.5591" stop-color="#747554"></stop>
      <stop offset="0.8676" stop-color="#414749"></stop>
      <stop offset="1" stop-color="#2F3843"></stop>
    </linearGradient>
    <linearGradient id="paint60_linear" x1="179.078" y1="33.0378" x2="179.428" y2="74.8376" gradientUnits="userSpaceOnUse">
      <stop stop-color="#FFF798"></stop>
      <stop offset="0.1049" stop-color="#F6EF98"></stop>
      <stop offset="0.2769" stop-color="#DADE96"></stop>
      <stop offset="0.4947" stop-color="#B3C695"></stop>
      <stop offset="0.7474" stop-color="#87AD93"></stop>
      <stop offset="1" stop-color="#639990"></stop>
    </linearGradient>
    <linearGradient id="paint61_linear" x1="204.537" y1="32.8257" x2="204.887" y2="74.6215" gradientUnits="userSpaceOnUse">
      <stop stop-color="#FFF798"></stop>
      <stop offset="0.1049" stop-color="#F6EF98"></stop>
      <stop offset="0.2769" stop-color="#DADE96"></stop>
      <stop offset="0.4947" stop-color="#B3C695"></stop>
      <stop offset="0.7474" stop-color="#87AD93"></stop>
      <stop offset="1" stop-color="#639990"></stop>
    </linearGradient>
    <linearGradient id="paint62_linear" x1="141.584" y1="62.9973" x2="144.87" y2="58.7435" gradientUnits="userSpaceOnUse">
      <stop stop-color="#F5EC47"></stop>
      <stop offset="0.1076" stop-color="#DED549"></stop>
      <stop offset="0.3013" stop-color="#AEA951"></stop>
      <stop offset="0.5591" stop-color="#747554"></stop>
      <stop offset="0.8676" stop-color="#414749"></stop>
      <stop offset="1" stop-color="#2F3843"></stop>
    </linearGradient>
    <linearGradient id="paint63_linear" x1="163.5" y1="60.985" x2="157.2" y2="67.422" gradientUnits="userSpaceOnUse">
      <stop stop-color="#F5EC47"></stop>
      <stop offset="0.1076" stop-color="#DED549"></stop>
      <stop offset="0.3013" stop-color="#AEA951"></stop>
      <stop offset="0.5591" stop-color="#747554"></stop>
      <stop offset="0.8676" stop-color="#414749"></stop>
      <stop offset="1" stop-color="#2F3843"></stop>
    </linearGradient>
    <linearGradient id="paint64_linear" x1="167.588" y1="49.2902" x2="165.126" y2="51.9925" gradientUnits="userSpaceOnUse">
      <stop stop-color="#F5EC47"></stop>
      <stop offset="0.1076" stop-color="#DED549"></stop>
      <stop offset="0.3013" stop-color="#AEA951"></stop>
      <stop offset="0.5591" stop-color="#747554"></stop>
      <stop offset="0.8676" stop-color="#414749"></stop>
      <stop offset="1" stop-color="#2F3843"></stop>
    </linearGradient>
    <linearGradient id="paint65_linear" x1="149.306" y1="85.5502" x2="153.648" y2="81.3376" gradientUnits="userSpaceOnUse">
      <stop stop-color="#F5EC47"></stop>
      <stop offset="0.1076" stop-color="#DED549"></stop>
      <stop offset="0.3013" stop-color="#AEA951"></stop>
      <stop offset="0.5591" stop-color="#747554"></stop>
      <stop offset="0.8676" stop-color="#414749"></stop>
      <stop offset="1" stop-color="#2F3843"></stop>
    </linearGradient>
    <linearGradient id="paint66_linear" x1="151.656" y1="49.5689" x2="157.623" y2="81.0295" gradientUnits="userSpaceOnUse">
      <stop stop-color="#FFF798"></stop>
      <stop offset="0.1049" stop-color="#F6EF98"></stop>
      <stop offset="0.2769" stop-color="#DADE96"></stop>
      <stop offset="0.4947" stop-color="#B3C695"></stop>
      <stop offset="0.7474" stop-color="#87AD93"></stop>
      <stop offset="1" stop-color="#639990"></stop>
    </linearGradient>
    <linearGradient id="paint67_linear" x1="157.265" y1="47.8691" x2="163.35" y2="79.9531" gradientUnits="userSpaceOnUse">
      <stop stop-color="#FFF798"></stop>
      <stop offset="0.1049" stop-color="#F6EF98"></stop>
      <stop offset="0.2769" stop-color="#DADE96"></stop>
      <stop offset="0.4947" stop-color="#B3C695"></stop>
      <stop offset="0.7474" stop-color="#87AD93"></stop>
      <stop offset="1" stop-color="#639990"></stop>
    </linearGradient>
    <linearGradient id="paint68_linear" x1="151.822" y1="31.3713" x2="143.946" y2="2.12023" gradientUnits="userSpaceOnUse">
      <stop stop-color="#FFF343"></stop>
      <stop offset="0.1924" stop-color="#FFED43"></stop>
      <stop offset="0.3782" stop-color="#F9DF43"></stop>
      <stop offset="0.5614" stop-color="#EECB41"></stop>
      <stop offset="0.743" stop-color="#DFB03F"></stop>
      <stop offset="0.9219" stop-color="#CF923D"></stop>
      <stop offset="1" stop-color="#C8853C"></stop>
    </linearGradient>
    <linearGradient id="paint69_linear" x1="227.604" y1="70.8909" x2="221.864" y2="49.148" gradientUnits="userSpaceOnUse">
      <stop stop-color="#FFF343"></stop>
      <stop offset="0.1924" stop-color="#FFED43"></stop>
      <stop offset="0.3782" stop-color="#F9DF43"></stop>
      <stop offset="0.5614" stop-color="#EECB41"></stop>
      <stop offset="0.743" stop-color="#DFB03F"></stop>
      <stop offset="0.9219" stop-color="#CF923D"></stop>
      <stop offset="1" stop-color="#C8853C"></stop>
    </linearGradient>
    <linearGradient id="paint70_linear" x1="72.2438" y1="113.278" x2="74.1702" y2="120.632" gradientUnits="userSpaceOnUse">
      <stop stop-color="#FFF343"></stop>
      <stop offset="0.1924" stop-color="#FFED43"></stop>
      <stop offset="0.3782" stop-color="#F9DF43"></stop>
      <stop offset="0.5614" stop-color="#EECB41"></stop>
      <stop offset="0.743" stop-color="#DFB03F"></stop>
      <stop offset="0.9219" stop-color="#CF923D"></stop>
      <stop offset="1" stop-color="#C8853C"></stop>
    </linearGradient>
    <linearGradient id="paint71_linear" x1="3.50359" y1="85.6624" x2="5.42023" y2="92.4563" gradientUnits="userSpaceOnUse">
      <stop stop-color="#FFF343"></stop>
      <stop offset="0.1924" stop-color="#FFED43"></stop>
      <stop offset="0.3782" stop-color="#F9DF43"></stop>
      <stop offset="0.5614" stop-color="#EECB41"></stop>
      <stop offset="0.743" stop-color="#DFB03F"></stop>
      <stop offset="0.9219" stop-color="#CF923D"></stop>
      <stop offset="1" stop-color="#C8853C"></stop>
    </linearGradient>
    <linearGradient id="paint72_linear" x1="229.219" y1="91.0755" x2="231.136" y2="97.8694" gradientUnits="userSpaceOnUse">
      <stop stop-color="#FFF343"></stop>
      <stop offset="0.1924" stop-color="#FFED43"></stop>
      <stop offset="0.3782" stop-color="#F9DF43"></stop>
      <stop offset="0.5614" stop-color="#EECB41"></stop>
      <stop offset="0.743" stop-color="#DFB03F"></stop>
      <stop offset="0.9219" stop-color="#CF923D"></stop>
      <stop offset="1" stop-color="#C8853C"></stop>
    </linearGradient>
    <linearGradient id="paint73_linear" x1="190.516" y1="17.4703" x2="192.561" y2="24.7548" gradientUnits="userSpaceOnUse">
      <stop stop-color="#FFF343"></stop>
      <stop offset="0.1924" stop-color="#FFED43"></stop>
      <stop offset="0.3782" stop-color="#F9DF43"></stop>
      <stop offset="0.5614" stop-color="#EECB41"></stop>
      <stop offset="0.743" stop-color="#DFB03F"></stop>
      <stop offset="0.9219" stop-color="#CF923D"></stop>
      <stop offset="1" stop-color="#C8853C"></stop>
    </linearGradient>
  </defs>
</svg>
